<?xml version="1.0" encoding="UTF-8"?>
<svg id="Layer_2" data-name="Layer 2" xmlns="http://www.w3.org/2000/svg" viewBox="0 0 1000 1000">
  <defs>
    <style>
      .cls-1 {
        fill: #3d2112;
      }
    </style>
  </defs>
  <g id="Components">
    <g id="_6e263c8e-2fc2-46dd-8980-eb5046d43b3e_1" data-name=" 6e263c8e-2fc2-46dd-8980-eb5046d43b3e 1">
      <path class="cls-1" d="M777.9,537.95c-.15-.44-.21-.91-.18-1.37-.04-.34-.08-.68-.11-1.01.14.01.19.15.21.32.01-.05.03-.1.05-.15-.15-.56-.27-1.08-.21-1.77.06-.29.19.16.26.26-.18-1.11.04-2.15-.2-3.13l-.06-1.18c-.23-.64-.26-1.36-.11-2.03l-.03-.45c.05.02.12-.02.12.12,0,0,0,0,0,0-.01-.35-.09-.65-.16-.96l-.09-1.56s0,0,0,0c-.22-.64-.26-1.35-.11-2.01l-.08-1.38h0c-.12-.23-.24-.47-.15-.82.06-.05.18-.02.29,0,0-.08-.01-.16-.02-.24-.11-.35-.16-.72-.15-1.1-.01-.02-.03-.04-.04-.06.01.01.03.02.04.03,0-.2.02-.4.06-.6-.08.02-.12,0-.04-.34.02.05.05.04.08.13,0-.02.01-.04.02-.06.07-.75-.15-1.46-.04-2.15.36-.21.09.63.4.39-.07-1.04-.44-2.16-.35-3.17l-.04.19c-.51-.14.25-.75.01-1.26.04.13.29.16.23.13.08-.69-.13-1.41-.29-2.46l.13.13c.12-.41.07-1.07.13-1.51-.13-.13-.11-.38-.3-.23.75-1.35-.4-2.58.22-3.79-.11-.15-.21-.31-.3-.47,0,0,0,.01-.02.02-.13-.13-.23-.42-.24-.67-.2-.73-.17-1.53.09-2.24-.06-.16.33-2.26-.07-2.88.42.68.24.11.54.16.08-.18.17-.45.26-.37-.24-.33.19-.55-.16-1.02l-.04-.21c-.32-.66.39-1.56-.05-2.51-.17-.75-.24-.99-.41-1.61v-1.29c-.46-.95-.66-.86-.21-1.81v-.8c0-.59-.46-1.08-1.05-1.12h-.05c.04-.14.08-.27.09-.41-.32-.18-.59-.41-.8-.68l-.38.14-.18-.23s-.03,0-.04,0c-.04.02-.09.05-.13.07,0-.02-.03-.04-.04-.06-.05,0-.11,0-.16,0-.11,0-.21,0-.31-.02,0,0-.02,0-.03,0l-.32.2c-.02-.06,0-.11.03-.16-.06,0-.11,0-.17,0,.03.09.03.16-.19.21-.11-.09-.16-.16-.2-.22-.1,0-.19-.02-.29-.03-.02,0-.03,0-.04.02,0,0,0-.02,0-.02-.17-.03-.33-.06-.47-.11-.13.02-.26.05-.32.14-.2-.19-.63-.12-.84-.21-.03,0-.06,0-.1,0-.15,0-.29-.01-.43-.03-.15.05-.31.1-.43.1.07-.06.1-.11.11-.15-.18-.04-.35-.09-.51-.16-.24-.03-.47-.08-.47-.25-.02-.01-.04-.02-.05-.04-.44.35-1.34.07-1.99.27.04-.03.12-.1.17-.08-.11-.02-.2-.05-.27-.08-.27.09-.56.15-.89.17-.19.08-.39.14-.54.23-.12-.11-.14-.19-.13-.25-.13-.02-.25-.04-.37-.07,0,.02,0,.03,0,.05-.04-.03-.08-.06-.11-.08-.16-.04-.31-.1-.46-.16-.12.07-.31-.08-.53.11-.18-.1-.24-.18-.27-.25-.12,0-.22-.02-.33-.03-.09.01-.18.02-.27.02,0,.05,0,.1-.05.13-.55,0-.67,0-.74-.11-.02-.02-.03-.05-.04-.07-.15-.03-.3-.06-.44-.11-.57.33-.76.88-1,1.23-.07,0-.14.07-.14-.07-.09.4-.23.89-.19,1.47v.21s.01.13.01.13c0,.09.02.17.03.25.03.16.08.32.17.45-.02.03-.04.03-.06.04,0,0,0,0,0,.01.17-.07.26.59.23.57.25.82.2,1.75-.15,2.53-.01.06-.04.11-.06.16,0,.25-.03.49-.08.73.03.2.04.39.03.59.14.13.23.3.1.66l-.16-.09c-.02.13-.05.26-.09.39.14.18-.12,1.14-.12,1.14.05.84.29,1.76.35,2.69-.1-.05-.2-.21-.3,0,.14,1,.01,2.1-.15,3.11.52.84.65,1.93.37,2.89.07.57.07,1.16-.09,1.58l-.08-.16c-.12.64.58.72.32,1.31l-.05-.11c-.12,1.38.14,2.91-.29,3.97.41.2-.18,1.37.39,1.46-.28.79-.39.56-.58,1.68-.03.3.36.44.42.81l-.05.85c.14.54-.21,1.31-.36,1.33l.25,1.27c-.12-.03-.16-.24-.24-.41.31.68-.31.12-.04.75.07-.08.18.05.24.06-.18.31-.18,1.02-.11,1.54l-.21-.1c-.02.38,0,.77.01,1.18.3.51.46,1.1.47,1.7.05.05.08.11.09.19l-.1.04s0,0,0,.01c.03,0,.07.04.14.16-.02.18-.09.25-.18.25-.07.44-.21.86-.44,1.24,0,0,.01.02.02.03h-.05s-.03.06-.04.09c0,1.02.11,1.5.12,2.35.27.02.21.35.43.61-.09.63-.3,1.34-.28,2.1.14.54.23.16.39.4-.25.04-.23.8-.4.41.04.92.05,1.17.25,2.33.1-.13.15-.27.23-.19.04.21-.1.48-.22.45l-.03-.06c.37,1.3-.72,3.01-.21,4.04l-.03-.06.27,1.08c-.04.49-.19-.3-.34.07.41,1.16-.06,1.83.22,2.79-.73.74.05,2.62-.42,3.62l.17-.06c.17.26-.1.31-.14.5.13-.03.16-.28.25-.12.03.28.04.54.05.84,0,.48.01.95.2,1.37.36.86,1.26,1.42,2.27,1.4h.19s.12.02.12.02l.21.02.43.05.85.09c.57.06,1.13.12,1.69.16.82.05.46-.89,1.5-.48l-.29.32c.41-.1.83-.14,1.25-.17.21-.01.42-.02.63-.02l.73-.03c.97-.07,1.95-.3,2.74-.82-.07.11-.03.21-.21.27.23.04.57-.13.84-.3.26-.2.44-.43.39-.51.26-.13.15.11.36.1.42-.12.64-.82.94-.79.05,0-.04.13-.08.2.06-.13.3-.33.47-.5.16-.18.26-.34.07-.34.3-.21.49-.49.66-.76.03-.05.06-.1.1-.15.13-.46.36-.88.68-1.23.01-.02.02-.03.03-.05.04-.17.08-.34.12-.51-.02-.03-.03-.06-.06-.09.03.01.05,0,.08,0,0-.03.01-.06.02-.1.18-.75.34-1.41.38-2.18.03-.48.15-.94.34-1.36-.09-.45-.27-.84.13-1.12-.08-.45-.14-.87-.21-1.3h0Z"/>
      <path class="cls-1" d="M376.62,463.66c-.09-.01-.19-.01-.28-.02l-1.26.07c.51,0,1.03-.03,1.54-.05Z"/>
      <path class="cls-1" d="M259.38,553.03c.71.04,2.24-.12,2.12.11.02-.04.54-.32.53.05,0,0,6.08.09,4.51-.43,2.94-.08,5.98-1.79,6.4-5.06.02.03.11-.8.07-1.25.05.03.1.13.12.35.23-.64-.24-1.12.14-1.34l-.11-.77c.08.15-.07-1.88.22-2.4l.02.12c-.25-1.73-.94-1.14-.39-2.73-.31.09-.61-.49-.45-.61-.55-.54-.04.18-.42-.09-.11-.84-1.11-1.6-2.03-1.99-.15-.72-1.25-.46-1.8-.8,2.07-.47-3.42-.33-4.75-.2.07-.12-2.18-.2-3.25-.33,0,0-1.92,0-1.48-.09-.67-.07-.87.14-1.67.22l.19-.27c-1.04.02-2.16.32-3.22.14.27.7-1.15,0-1.02-.15,0,.15-.54,0-.57-.05-.49.13-.58-.04-.34-.14-.04-.16,2.88-2.43,4.05-3.46l.05.08c1.04-.58,2.13-2.28,2.97-2.12.6-.54.61-.68,1.61-1.26-.54.63.3-.05-.58.61.87-.57,1.14-.6,1.85-1.52-.15.44.79-.25,1.12-.64l-.66.34c.4-.39.79-.69,1.17-1.01v.43c1.87-1.15,2.4-3.15,3.94-3.94.23-.59-.9.78-.74.21,2.06-1.44,2.28-1.92,3.19-3.99-1.29.08,2.16-4.66,2.23-4.86.63-1.72.1-.79.3-2.25.3-.73.36.36.44-1.04.22-.83.57-2.93.57-2.93.03-.4.03-.74.11-.74-.16-.4-.35.32-.59-.46.08-.53-.27-1.56-.02-1.78.12,1.66.05-.38-.31-1.97.21.16-.08-.33-.38-.86-.21-1.04-.48-.94-.48-.94l-3.39-6.33c.1.45-1.85.33-.82-.57-.98-1.26-2.22-1.56-3.83-2.65.17.13.33.26.49.4-.32.06-1.05-.57-1.65-.76.13-.15-.19-.39-.4-.61-.02.14-1.31-.57-1.6-.24-1.33-1.23-2.46-.46-3.95-.81.47-.12-.16-.39.83-.34-.48-.11-.91-.21-.94-.09-.67-.3-2.01.11-2.61-.13-.01.09-.85.04-.4.3-2.77-.83-5.96-.71-8.64-.57.06-.06,0-.1.18-.08-1.32-.12-.78.59-2.27.5-.79-.25.78-.24.29-.31-.26-.63-1.79.25-2.84.04l.24-.07c-.8-.1-1.85.54-3.09.8-.6.12-2.98,1.43-3.94,1.95-.37.03-1.13.29-1.34.11.31-.18.61-.35.93-.51-.63-.08-1.21.66-1.71.9v-.17c-1.39.97-1.21,1.29-2.53,2.39l.21-.03c-.46.93-.73.38-1.21,1.28l-.46-.05c-.38.54-1.16,1.99-1.67,3.02.09-.72-.35.53-.88,1.68-2.78,2.46-3.23,8.72.4,11.16-.5-1.08.75.51.85-.16.55.28.78.35.82.42l-.11-.07s.07.05.12.08h0c.39.5,2.78,1.05,2.78,1.05,1.76-.18,1.46.63,3.23.45l-.57.14c.43.22,5.09-.26,4.22.13,2.51.31,5.12-1.96,6.24-4,.01.08.18-.74.45-1.16.28.31.14-1.07.55-1.42-.02.14,1.13-1.79,2.53-2.43.15-.07.31-.02.44.06.47.27,1.6.23,1.98.41l-.03.06c4.93.42,4.31,5.9,1.03,8.46.82-.12-1.54,2.28-.96,1.36-.35.04-2.27,1.02-1.72,1.83-2.86,1.8-5.17,3.75-7.1,5.42l-.13-.24c-1.24.89-1.86,1.35-3.28,2.62l.18-.41c-1.3,2.71-4.15,3.24-5.87,5.93-.02-.07-.06-.19.15-.43-.65.61-2.57,2.34-1.96,2.49-.28-.25-1.33,1.47-1.83,2.41l-.1-.3c-.1.37-.68,2.4-.98,2.01-.48.6-.16.7-.83,1.56l.09-.47c-.65,1.15-.74,2.61-1.71,3.08,0,0,.01,0,.02,0,.09.03-.21,1.24-.31,1.22-.04,0-.02-.23-.05-.23-.09-.02-.62,2.13-1.18,4.55-.57,2.47.26,5.15,2.24,6.58.13.09.27.18.41.27,1.94,1.18,3.87.88,4.63.69.91-.07,2.19-.06,2.37-.37,1.09.16-.62.33.89.28l-.2.11c2.96.58,4.81-.93,8.09-.18-.23-.05-.34-.07-.39-.13,6.75.19,12.64-.06,19.17.12l-.25-.2h0Z"/>
      <path class="cls-1" d="M324.53,540.7c.19-1.23.98-2.33,1.2-3.53l.09.03c.3-.77-.03-2.26.6-2.43.04-.55-.03-.63.25-1.37.1.66.43-.54.27-1.03.19.3.37-.48.35-.82l-.24.46c.02-.38.09-.7.15-1.03l.28.23c.57-1.4-.33-2.68.38-3.71-.18-.4-.22.77-.44.41.72-1.6.62-1.86.36-3.35-1.07.49.03-2.26,0-.64.21,1.16.12-1.21.4-.87-.1-.51-.18-.22-.24.15.17-.85.02-1.33.14-2.21-.06.14-.19.27-.19.13.13-1.29-.21-.57-.27-1.44.16-.5.41.17.24-.71.09-.54.04-2.13-.2-2.63.09-.34-.2-.99.08-1.14,0,.97.24.05.37.59-.03-.23-.05-.63.07-.39.16-1.03-.37-.43-.47-1.46.18.11.29-.28.23-.44-.17,1.01-.67-1.36-.64-1.17v.4c-.19-.11-.21-.44-.33-.88.68-.53.27-.84-.02-1.64.66-.58-.19-.83-.49-1.39-.19-.51-.69-1.31.21-1.28,0-1.03-.67-1.65-.92-2.94l.03.43c-.25-.1-.26-.76-.48-1.13.18-.03.16-.3.21-.52-.12.07-.32-.91-.7-.87.22-1.31-.91-1.46-1.35-2.41.32.17.22-.3.65.22-.14-.29-.27-.59-.38-.53,0-.25-.67-.68-.7-1.04-.03,0-.66-.16-.44-.37-.08.05-.43-.41-.41-.01-.63-1.82-2.31-3.51-3.72-4.63.07-.02.06-.08.14.02-.6-.72-.74.09-1.43-.67-.26-.56.53.17.33-.11.22-.63-1.05-.63-1.47-1.28l.16.05c-.36-.46-1.22-.42-1.96-.81-.26-.34-3.1-.06-3.48-1.29.22.05.44.11.66.17-.25-.44-.86-.23-1.19-.38l.08-.14c-1.04-.19-1.11.19-2.2-.02l.1.13c-.64.29-.47-.29-1.1-.09-.12-.86-1.43-.03-2.27-.14.41-.27-.39-.03-1.17-.06-1.78-1.21-4.64-.5-7.03-.46.65.5-2.15.11-2.73.08.16.19-.22.36-.71.41-.15,0-.7.05-1.46.53.1-.1.21-.21.31-.3-.44-.07-3.06,1.84-2.64,1.21-1.42.53-2.72,1.99-3.8,2.44l.02-.19c-.21.21-.25.5-.61.61-.08-.42-.48.64-.87.74.04-.12.1-.22.15-.34-1.24.85-1.43,1.86-2.13,2.88-.46-.29-1.23.72-1.53,1.03l-.03-.05c-1.6,3.13-2.32,5.46-3.63,8.98.42-.37.27,1.62-.03,1.35l.03-.13c-.41.19-.47.98-.58,1.58l.47.19c-.85,2.19-.82,4.43-.82,6.12l-.26-.04c-.14,1.04-.19,1.57-.17,2.87l-.18-.27c-.05.73.73.94.74,1.61-.87.71-.53,2.84-.34,4.01-.06-.02-.17-.05-.19-.26,0,.6-.16,2.34.37,2.09-.35.04.05,1.32.27,1.98l-.27-.08c.31.13.88,1.88.5,1.28-.06.65.29.46.26,1.25l-.2-.26c.15.86.85,1.6.29,2.3.17-.1.65,1.11.21.65.16,2.72,1.93,4.78,1.5,7.16.35,1.35,1.83,2.32,1.9,3.21-.13-.13-.23-.32-.33-.37.39.49.99,1.54,1.34,1.45.3.72-.5-.16.14.67l-.17-.05c.85,2.13,2.73,2.08,3.88,4.07-.09-.14-.14-.2-.13-.27,2.07,1.85,5.17,4,7.81,4.18l.07.33c1.47-.62,2.11.94,3.78.67l-.14-.22c.46.11,1.48.05,1.38.28.05-.09.4-.23.34.08,2.05-.54,3.88.21,2.99-.29,2.1-.36,4.37-.17,6.42-.6-.01.06-.07.12-.19.16.41.17.69-.33.84.02l.45-.21c-.08.1,1.13-.31,1.5-.09l-.06.04c1.03-.53.61-1.11,1.58-.35-.07-.27.26-.51.38-.27.38-.33-.11-.1.09-.37.64.06,1.18-.24,1.7-.65.35.39.64-.36,1.21-.41-.04.32-.56.43.02.39.11-.57,1-.4,1.36-.74-.15-.32.8-.65,1.36-1.23.35,0,1.91-1.14,1.91-1.14-.09-.46.55-.94.77-1.33.13.16.13.3-.01.59.37-.31.33-.54.61-1.03l.11.28c.47-.64.67-1.39,1.26-2-.39-.11-.26-.61-.13-.72,0,0,.76-.59.87-.85.31-.64,1.59-3.13,1.08-2.6h0ZM307.54,521.19c-.01-.06.02-.09.06-.09-.04-.08-.09-.18-.21-.08l.11.03c-.11.12-.1.46-.28.38.11.18.18.08.24-.06-.16.31,0,.49-.11.81.06-.05.19-.1.19-.05-.13.47.21.21.26.53-.17.18-.4-.07-.26.26-.11.2-.29.04-.38-.04.21.3-.15.55-.19.71l-.09-.16c.05.09.05.17.05.24l.22-.08c-.04.09-.04.17-.13.16.14.1.37-.06.56.12-.11.12.11.37-.18.41l.04,1.85c-.12.11-.31,0-.39.09.2.3-.24.3-.09.61.23-.07.17-.09.37.14l-.12-.51.3.34c.01-.15-.12-.33-.08-.42.17.17.12.15.3.09-.34.19.17.43-.07.65-1-.25-.39.39-.5,1.06.26-.35.17.13.18.31-.18-.04-.26.05-.38.1.14.01-.05.33.3.43-.71.27.16.61.07,1.02-.18-.14-.33,0-.43-.27-.02.12-.07.21.05.24-.12.04.19.37,0,.44.09.03.36.3.12.23.09.02.07.23.3.17-.58.52-.69,1.25-.93,1.94-.04-.04-.08-.04-.05-.07-.27.21.4.42.07.66-.34.02-.06-.25-.21-.2-.55-.26-.12.42-.54.42v-.07c-.26.02-.03.48-.24.68,0,0-.03-.05-.07-.06.13.35-.05.72-.21.97-.09-.25,0-.18-.18-.34.26.39.11.71-.38.25.06-.05.11-.1.16-.15-.32-.28-.24.48-.41.06-.24.21-.07.56-.42.7l.08.09c-.05.44-.23-.13-.33.22l-.18-.35c-.08.14-.33.5-.57.62.09-.31.32-.52.42-.74-.12.04-.39.15-.42.34.35-.32-.14.57-.41.45-.02-.74-.72-.13-.9-.74-.46.26-.84-.19-1.26-.31-.02.61-.13-.03-.31.54-.13-.01-.16-.04-.16-.09h0c-.3-.52.04-.64.02-1.16-.08.2-.22.23-.28.08,0,.11,0,.23,0,.34-.46.06.05-.57-.38-.54.06-.02.13-.05.19-.07-.2-.02-.42-.43-.88-.29.03-.07.12-.21.21-.17-.15-.32-1.29-.84-.73-1.1-.22-.06-.32-.14-.08-.26-.06-.02-.31-.13-.28-.27l.18.04c0-.51-.59-.57-.8-.97.46-.1.35-.65.51-.75-.59-1.11-.81-1.87-.55-3.25-.19.23-.72-.43-.31-.43v.05c.35-.13.24-.4.23-.61h-.49c.67-.61-.34-1.47.28-1.81-.13-.13-.13-.3-.26-.43h.26c.06-.38.09-.57.02-1.04l.19.09c.01-.26-.76-.32-.78-.57l.39-.08c-.01-.46.34-.93-.02-1.39.06,0,.17.02.19.1,0-.22.28-.84-.26-.77.35,0,.04-.48-.1-.73l.26.05c-.38-.09-.62-.74-.35-.49.14-.23-.24-.19-.09-.47l.16.11c0-.33-.6-.6.06-.83-.23-.06-.36-.49-.06-.26.14-.29-.25-.69.04-.87.14-.37.02-.73.12-1.01-.16-.08-.32-.18-.4-.23.38-.13.61-.44.84-.45.1-.34-.7-1.89-.09-1.17-.09-.24.07-.64-.26-.77.21-.24.27.22.3-.16.88-.1-.51-1.52.45-1.89-.06.04-.09.05-.14.04.55-.68.54-1.89,1.5-2.12.23-.07.1-.26.12-.49l.2.21c-.32-1.11,1.28.07.92-.81.16-.02.46-.26.48-.02,0-.22.12-.15.12.03.59-.75.33.15.79.28.15-.07.45-.47.39-.57-.29-.08-.11-.27-.02-.42.7,0,1.35.1,1.92.3l-.04.06c.09-.09.2,0,.31.03-.03.05-.06.09-.11.09.06.23.35-.05.22.26.07-.01.13-.02.2-.03-.02.02-.04.06-.06.1.24.07.47.18.67.3.26-.36.19.28.45.36.01-.02.03-.05.1-.07,0,.29.3.36.31.57,0-.06,0-.09.15-.05-.34.25.43.33.09.5.14.44.27.64.56,1.05-.15,0,.13.73-.05.88.33-.07.36.21.49.38-.2.06-.28.04-.4-.03.01.23.21.16.31.33l-.26.03c.08.23.41.41.32.77.16-.02.37-.21.56-.23.01.06.03.11.04.17-.08.01-.15.01-.19-.03.26.21-.05.12-.15.07-.06.17.19.03.2.16-.23.08-.21.23-.28-.02,0,.14-.08.32-.21.41.45-.1.27.22.02.33.13.04.03.22.3.17.01.07-.11.11-.18.15.13.11.18.67.41.37.35.39-.02.94.14,1.36h-.09c.03.34.58.9.07.92.09.19.19.21.06.51-.17-.19-.14.08-.13-.2-.06.26-.2.33.07.59-.24-.08-.28.21-.21.33l.16-.19c.04.14.03.26.01.38-1.07-.15.44.99-.24,1.3.22.13.14-.29.4-.18-.03.25-.47.51-.47.59-.16.34.46.3.35.65.66-.29.53.72-.04.32h0Z"/>
      <path class="cls-1" d="M328.11,517.36c.01.08.02.14.03.15,0-.07-.02-.1-.03-.15Z"/>
      <path class="cls-1" d="M381.21,539.69c-.31.09-.61-.49-.45-.61-.55-.54-.04.18-.42-.09-.11-.84-1.11-1.6-2.03-1.99-.15-.72-1.25-.46-1.8-.8,2.07-.47-3.42-.33-4.75-.2.07-.12-2.18-.2-3.25-.33,0,0-1.92,0-1.48-.09-.67-.07-.87.14-1.67.22l.19-.27c-1.04.02-2.16.32-3.22.14.27.7-1.15,0-1.02-.15,0,.15-.54,0-.57-.05-.49.13-.58-.04-.34-.14-.04-.16,2.88-2.43,4.05-3.46l.05.08c1.04-.58,2.13-2.28,2.97-2.12.6-.54.61-.68,1.61-1.26-.54.63.3-.05-.58.61.87-.57,1.14-.6,1.85-1.52-.15.44.79-.25,1.12-.64l-.66.34c.4-.39.79-.69,1.17-1.01v.43c1.87-1.15,2.4-3.15,3.94-3.94.23-.59-.9.78-.74.21,2.06-1.44,2.28-1.92,3.19-3.99-1.29.08,2.16-4.66,2.23-4.86.63-1.72.1-.79.3-2.25.3-.73.36.36.44-1.04.22-.83.34-3.34.1-4.13.08-.53-.27-1.56-.02-1.78.12,1.66.05-.38-.31-1.97.21.16-.08-.33-.38-.86-.21-1.04-.48-.94-.48-.94l-3.39-6.33c.1.45-1.85.33-.82-.57-.98-1.26-2.22-1.56-3.83-2.65.17.13.33.26.49.4-.32.06-1.05-.57-1.65-.76.13-.15-.19-.39-.4-.61-.02.14-1.31-.57-1.6-.24-1.33-1.23-2.46-.46-3.95-.81.47-.12-.16-.39.83-.34-.48-.11-.91-.21-.94-.09-.67-.3-2.01.11-2.61-.13-.01.09-.85.04-.4.3-2.77-.83-5.96-.71-8.64-.57.06-.06,0-.1.18-.08-1.32-.12-.78.59-2.27.5-.79-.25.78-.24.29-.31-.26-.63-1.79.25-2.84.04l.24-.07c-.8-.1-1.85.54-3.09.8-.6.12-2.98,1.43-3.94,1.95-.37.03-1.13.29-1.34.11.31-.18.61-.35.93-.51-.63-.08-1.21.66-1.71.9v-.17c-1.39.97-1.21,1.29-2.53,2.39l.21-.03c-.46.93-.73.38-1.21,1.28l-.46-.05c-.38.54-1.16,1.99-1.67,3.02.09-.72-.35.53-.88,1.68-2.78,2.46-3.23,8.72.4,11.16-.5-1.08.75.51.85-.16.55.28.78.35.82.42l-.11-.07s.07.05.12.08h0c.39.5,2.78,1.05,2.78,1.05,1.76-.18,1.46.63,3.23.45l-.57.14c.43.22,5.09-.26,4.22.13,2.51.31,5.12-1.96,6.24-4,.01.08.18-.74.45-1.16.28.31.14-1.07.55-1.42-.02.14,1.13-1.79,2.53-2.43.15-.07.31-.02.44.06.47.27,1.6.23,1.98.41l-.03.06c4.93.42,4.31,5.9,1.03,8.46.82-.12-1.54,2.28-.96,1.36-.35.04-2.27,1.02-1.72,1.83-2.86,1.8-5.17,3.75-7.1,5.42l-.13-.24c-1.24.89-1.86,1.35-3.28,2.62l.18-.41c-1.3,2.71-4.15,3.24-5.87,5.93-.02-.07-.06-.19.15-.43-.65.61-2.57,2.34-1.96,2.49-.28-.25-1.33,1.47-1.83,2.41l-.1-.3c-.1.37-.68,2.4-.98,2.01-.48.6-.16.7-.83,1.56l.09-.47c-.65,1.15-.74,2.61-1.71,3.08,0,0,.01,0,.02,0,.09.03-.21,1.24-.31,1.22-.04,0-.02-.23-.05-.23-.09-.02-.62,2.13-1.18,4.55-.57,2.47.26,5.15,2.24,6.58.13.09.27.18.41.27,1.94,1.18,3.87.88,4.63.69.91-.07,2.19-.06,2.37-.37,1.09.16-.62.33.89.28l-.2.11c2.96.58,4.81-.93,8.09-.18-.23-.05-.34-.07-.39-.13,6.75.19,12.64-.06,19.17.12l-.25-.2c.71.04,2.24-.12,2.12.11.02-.04.54-.32.53.05,0,0,6.08.09,4.51-.43,2.94-.08,5.98-1.79,6.4-5.06.02.03.11-.8.07-1.25.05.03.1.13.12.35.23-.64-.24-1.12.14-1.34l-.11-.77c.08.15-.07-1.88.22-2.4l.02.12c-.25-1.73-.94-1.14-.39-2.73h0Z"/>
      <path class="cls-1" d="M392.51,534.62c-.06-.07-.05-.04.01.04.01,0,.04-.02.04-.02,0,0-.05-.01-.05-.01Z"/>
      <path class="cls-1" d="M436.16,527.31c-.17-1.17.16-.43.15-1.14-.16-.26-.2-1.04-.47-.99.24-.3-.8-3.44-.84-2.4-.93-1.77-1.6-3.89-2.92-5.38l.07-.06c-.66-1.12-2.56-1.93-2.77-2.96-.71-.51-.33-.05-1.27-.91.81.36-.66-.76.29-.02-.87-.75-.79-.94-1.95-1.34.48-.01-.85-.79-1.38-.94.22.17-.18.04.03.23-.26-.13-.25-.12-.23-.11-.02-.01-.07-.03-.18-.09l-.1-.42c-1.85-1.25-1.34-.91-4.68-1.45-.63.13-1.39.03-1.99,0-3.67-.18-1.42.21-3.67-.18-.95.5-2.07.35-2.69.33-.23.01-1.86.07-2.95.25.86.11-.45.25-.62.35-.35.21-.14.32-.77.56-.31-.06.36-.53-.21-.23-.1-.27.4-4.24.43-4.59.21-.02,2.61.26,3.19.13,1.01.14,1.03-.15,1.03-.15,1.1-.58,1.97.36,3.89.06,1.02,1.01,2.71-.43,3.86.06l4.26-.04c.26-.23,2.2.14,2.47.26,2.12-.2,4.31.9,5.7-1.26-.23.53.46.07-.35,1,.47-.38.86-.78.77-.88.83-.71.93-2.17,1.23-2.99-.07-.03.04-1.05-.24-.51.54-3.2,1.09-7.48-1.43-9.81.05,0,.07-.01.1,0-.88-1-1.26-.38-2.27-1.16-.72-.64.86.2.44-.11-.24-.99-2.33-.61-3.15-.92l.26-.04c-.82-.22-2,.24-3.33.2-.65-.01-5.77.26-5.88,0h1.09c-.56-.37-1.41,0-1.98-.06l.07-.15c-1.66.05-1.69.44-3.47.41l-1.9-.2c-.64.09-2.26.38-3.41.45.66-.29-.64,0-1.91-.01-2.61-.97-8.35-.95-11.63-.52,1.17.22-.89.34-.45.83-.59.32-.8.47-.87.47l.13-.06c-.06.02-.09.04-.14.06h0c-.66.01-2.58,2.27-1.55.52-.68.85-.65.46-1.38,1.28.29-.1-.07.66-.4,1.6.21-.43.45-.83.72-1.19-.55,2.14-.98,1.76-1.11,3.88l-.08-.66c-.24.46-.29,5.69-.57,4.74-.46,2.41-.39,5.48-.97,7.31l-.11-.21c-.03.46.13.83-.1,1.37-.33-.26,0,1.27-.28,1.83l-.07-.54c-.56,2.33-.21,3.69-.43,5.69-.61.23-.85,2.02-1.05,2.75l-.05-.05c-.63,7.04,7.01,7.94,11.81,8.75-.68-.57,5.01.5,4.83-.68,2.75-1,5.12-3.91,8.16-3.34l-.05.27c1.4.29,2,.52,3.15,1.55-.12-.03-.24-.07-.36-.09,2.8.94,1.55,4.56,2.1,7.31-.06-.04-.16-.1-.16-.41.13.51-.76,2.93-.2,3.12-.45.24-.73,2.04-1.2,2.5l-.09-.3c.13.69-1.76,2.19-1.12,1.44-.87.29-.58.61-1.6.68.12-.08.24-.16.35-.25-1.21.29-2.24.89-3.09-.16,0,.01,0,.02,0,.03-.06.15-1.09-.14-1.08-.25,0-.02.05-.04.21-.06-1.28-1.52-2.16-2.68-2.37-3.05-.15-.26-.24-.52-.24-.52-.08-.22-.12-.41-.15-.55l.09.11c-.41-.62-.7-1.46-1.43-1.53.11.1.22.21.33.33-2.15-.81-3.77-1.02-4.82-1.07-.8-.04-1.04.03-2.15-.04-1.54-.11-1.94-.3-2.59,0-.62.29-.9.78-1.29.65-.2-.07-.51-.44-.64-.61-.19.13-1.86.52-1.43.09.12-.06.16-.15-.71.11l.21-.17c-3.51.37-4.73,4.33-4.59,7.61,0-.06.02-.11.03-.14,2.12,7.48,9.59,11.59,16.16,12.98l-.24-.25c.75.2,2.41.28,2.26.49.02-.02.61-.26.57.12.63-.02,1.27-.04,1.9-.09,1.45.2,9.58-.35,12.28-1.13l-.08.11c.38-.26.87-.28,1.29-.43-.01.07-.1.15-.31.23.7.05,1.02-.58,1.35-.27.24-.12.47-.25.71-.38-.12.14.22.23-.26.34,1.42-.28,2.01-1.17,2.61-1.14,1.49-1.15.56-1.33,2.27-1.24-.15-.32.41-.73.52-.55.5-.63-.17-.02.07-.45,1.22-1.17,2.7-2.07,3.8-3.55-.76,1.8,1.12-1.22,1.63-1.71-.26-.22.77-1.55,1.21-2.82.39-.34,1.35-2.72,1.61-3.39l.04.05c-.24-.34.16-1.56.26-2.49.19.08.24.26.22.79.22-.74.09-1.03.15-1.96l.22.26c.16-1.19,0-2.41.16-3.92-1.24,1.13-.26-1.55.01-2.42-.1.07-.24.03-.32-.42h0Z"/>
      <path class="cls-1" d="M424.3,552.73s0,0,0,0c-.04.03-.06.05-.1.08l.1-.08h0Z"/>
      <path class="cls-1" d="M431.94,493.28s.06.06.1.11c-.05-.07-.08-.09-.1-.11Z"/>
      <path class="cls-1" d="M411.45,511.07s.08,0,.12,0c.06,0,.05,0-.12,0Z"/>
      <path class="cls-1" d="M424.89,512.89s.02,0,0,0h0Z"/>
      <path class="cls-1" d="M424.88,512.89s0,0,0,0c0,0,0,0,0,0Z"/>
      <path class="cls-1" d="M689.45,575.05c.03-.08.08-.12.17-.15l-.03.18c.2-.02.38-.24.64-.14,0-.11-.11-.27-.11-.41.04,0,.09,0,.13-.01,0,.06,0,.11-.04.13.02-.01.07-.08.12-.05l-.09.16c.12.05.04-.13.13-.13.01.13.08.08.08.18-.02.02-.09-.04-.11.01.1,0,.24.07.29.16-.02-.07-.02-.17.05-.2.19-.04.09.15.21.19.03-.1.17-.03.14-.22.06,0,.08.08.11.12.09-.1.46-.12.31-.29h-.03s.01-.02.01-.02c.27-.26.69-.05.98-.23l.02.06c.16-.13.41-.18.49-.36.05-.02.17.05.18.13.12-.1.1-.18.35-.17-.09.17.09.07-.11.14.2-.03.29.04.4-.21,0,.18.23.12.29.03l-.18-.04c.08-.07.17-.1.26-.13l.06.21c.5.02.4-.75.89-.55,0-.18-.24.04-.26-.16.17-.08.5.07.56.03.28-.06,0-.4.27-.49-.08-.04-.22-.18-.12-.36.15-.09.38.1.33.23-.03.03-.06.03-.08,0-.03.06-.07.14.04.15l-.03-.08c.12,0,.31-.18.35-.04.06-.15-.04-.13-.14-.1.26-.07.29-.24.52-.37-.06,0-.15-.04-.12-.07.33-.19.01-.22.16-.41.18-.02.17.23.26-.02.16-.06.17.11.18.2.04-.27.37-.26.47-.35,0,.05-.02.09-.03.14.02-.08.06-.13.1-.18l-.16-.04c.06-.04.1-.09.15-.05-.03-.12-.23-.11-.26-.31.12-.03.1-.28.29-.18-.24.2.19.09.06.32.01-.05.05-.1.11-.15.03,0,.03.03.03.06.33-.13-.1-.24.06-.49.08.1.22.06.23,0-.07.1-.19-.05-.21-.19.18-.12.05-.21.11-.29l-.1.08c-.08-.09-.01-.16,0-.29.08.03,0,.14.06.11-.12-.22.33-.2.3-.45.11-.05.2.08.29.03-.04-.27.24-.18.22-.46-.17.02-.14.04-.22-.17l-.04.42-.12-.32c-.04.11,0,.27-.05.33-.07-.16-.04-.13-.18-.13.27-.07-.02-.34.19-.46l.36.13c.28-.23-.05-.55.14-.89l-.09.1c-.14-.08.04-.23,0-.36.12.03.18-.03.26-.07-.09,0,.04-.28-.21-.34l.19-.15c.11-.3-.34-.36-.29-.64.14.09.23-.04.33.15,0-.1.03-.18-.06-.19.08-.06-.17-.26-.05-.35-.05-.04-.19-.05-.19-.15.02-.01.06,0,.06,0-.06,0-.1-.16-.23-.06.37-.32-.1-.78.17-1.08-.09-.19-.16-.43-.23-.6.04,0,.06-.02.06.02.04-.28-.4-.05-.35-.36.15-.2.15.11.2,0,.38-.17-.14-.32,0-.58l.04.04c.08-.19-.29-.29-.35-.52,0,0,.04,0,.06-.02-.25-.07-.47-.31-.63-.49.18-.01.13.05.25-.07-.07-.08-.22.15-.36,0,.05-.1.05-.27.19-.38.04.05.07.11.1.17.16-.21-.13-.22-.16-.33l.09-.04c-.2-.24-.41-.11-.57-.39l-.04.07c-.3,0,.03-.2-.23-.23l.17-.2c-.12-.06-.45-.17-.61-.3.22-.04.44.1.63.15-.07-.09-.27-.31-.4-.27.05.02.13.03.13.09-.24.01-.44-.05-.59-.22.38-.31-.32-.53-.2-.91-.22-.07-.37-.22-.51-.39-.15-.16-.31-.34-.52-.47-.07.42-.13-.07-.31.28-.1-.04-.13-.07-.13-.09,0,0,0,0,0,0h0s-.18-.37-.18-.37c-.02-.14.14-.02.17-.11-.21-.15-.01-.2-.11-.37-.04.14-.17.14-.28.02l.1.26c-.41.02-.12-.46-.55-.4l.16-.07c-.2,0-.65-.28-.92-.03-.02-.05-.02-.17.06-.17-.43-.17-1.03.05-1.32-.18l.05-.09c-.09.01-.17.16-.26.04.01-.04.05-.09,0-.1-.05.03-.24.13-.34.06l.1-.09c-.42-.18-.68.23-1.03.27,0-.3-.34-.37-.52-.4v-.04c-.52-.01-.84.33-1.26.53-.18-.13-.42-.09-.68-.02-.26.06-.54.15-.78.18.09.02.07.21.01.27-.12,0-.19.3-.28.06h.04c-.18-.21-.37-.06-.52.03l.14.32c-.31-.1-.56.07-.75.27-.19.2-.35.38-.59.28-.04.13-.14.22-.17.35l-.11-.15c-.26.16-.4.24-.64.53l-.04-.15c-.16.15.18.57.06.71l-.24-.15c-.26.25-.66.41-.7.83-.03-.03-.08-.09-.05-.14-.13.12-.54.44-.2.6-.2-.13-.24.29-.24.52l-.14-.12c.11.26.17.3.11.53-.05.03-.15-.03-.07-.07-.17.11.08.2-.11.34l-.06-.12c-.11.15-.04.17.04.32.02.13-.19.29-.35.25.08.06.16.21.07.29-.06-.01-.08-.06-.09-.09-.24.24.03.5-.21.64-.06-.02-.35.18-.35.18-.03.04-.02.08,0,.13-.04.05-.07.09-.09.14l.18.29c.1.08.2.16.25.2-.28.06-.45.27-.61.3,0-.09.02-.18.09-.26-.09-.19-.16-.43-.23-.6.04,0,.06-.02.06.02.04-.28-.4-.05-.35-.36.15-.2.15.11.2,0,.38-.17-.14-.32,0-.58l.04.04c.07-.19-.29-.29-.35-.52,0,0,.04,0,.06-.02-.25-.07-.47-.31-.63-.49.18-.01.13.05.25-.07-.07-.08-.22.15-.36,0,.05-.1.05-.27.19-.38.04.05.07.11.1.17.16-.21-.13-.22-.16-.33l.09-.04c-.2-.24-.41-.11-.57-.39l-.04.07c-.3,0,.03-.2-.23-.23l.17-.2c-.12-.06-.45-.17-.61-.3.22-.04.44.1.63.15-.07-.09-.27-.31-.4-.27.05.02.13.03.13.09-.24.01-.44-.05-.59-.22.38-.31-.32-.53-.2-.91-.22-.07-.37-.22-.51-.39-.15-.16-.31-.34-.52-.47-.07.42-.13-.07-.31.28-.1-.04-.13-.07-.13-.09,0,0,0,0,0,0h0s-.18-.37-.18-.37c-.02-.14.14-.02.17-.11-.21-.15-.01-.2-.11-.37-.04.14-.17.14-.28.02l.1.26c-.41.02-.12-.46-.55-.4l.16-.07c-.2,0-.65-.28-.92-.03-.02-.05-.02-.17.06-.17-.43-.17-1.03.05-1.32-.18l.05-.09c-.09.01-.17.16-.26.04.01-.04.05-.09,0-.1-.05.03-.24.13-.34.06l.1-.09c-.42-.18-.68.23-1.03.27,0-.3-.34-.37-.52-.4v-.04c-.52-.01-.84.33-1.26.53-.18-.13-.42-.09-.68-.02-.26.06-.54.15-.78.18.09.02.07.21.01.27-.12,0-.19.3-.28.06h.04c-.18-.21-.37-.06-.52.03l.14.32c-.31-.1-.56.07-.75.27-.19.2-.35.38-.59.28-.04.13-.14.22-.17.35l-.11-.15c-.26.16-.4.24-.64.53l-.04-.15c-.16.15.18.57.06.71l-.24-.15c-.26.25-.66.41-.7.83-.03-.03-.08-.09-.05-.14-.13.12-.54.44-.2.6-.2-.13-.24.29-.24.52l-.14-.12c.11.26.17.3.11.53-.05.03-.15-.03-.07-.07-.17.11.08.2-.11.34l-.06-.12c-.11.15-.04.17.04.32.02.13-.19.29-.35.25.08.06.16.21.07.29-.06-.01-.08-.06-.09-.09-.24.24.03.5-.21.64-.06-.02-.09-.01-.11,0,.09-.23.17-.41.17-.39-.15-.06-.25.12-.41-.12.06.21.22.55.08.71-.02,0-.04,0-.06,0v-.03s-.04.08-.02.13c-.04.05-.07.09-.09.14-.14-.02-.13.21-.17.3.18.04.12.16.29.07-.02.01-.02-.02,0-.09,0-.02,0-.03,0-.05h.01c.01-.05.03-.14.05-.23.07.1.12.2,0,.28.1.08.2.16.25.2-.29.06-.47.3-.63.31.04.32-.06.75.27.96.04.09-.1.09-.16.12-.03-.05-.02-.11-.07-.14.07.18.01.52.25.56-.11.21-.22-.12-.18.17l-.07-.04c-.19.3-.02.54.13.77.16.23.31.45.12.81.02-.05.03-.07.07-.09-.09.78.52,1.4.5,2.19.02.22.16.18.33.24l-.15.13.3.09c.27.18-.14.71.34.86l.08-.12c.05.14.33.3.19.37.03,0,.14-.05.12.03l-.08.07c.12.05.23.1.35.15.13.24-.33.24-.06.54.14.08.5.08.51,0-.04-.04-.06-.15,0-.23l.13.05s.03-.03.04-.04c0,0,0,0,.01.01.38.35.78.63,1.19.87l-.04.04.06-.02c.05.03.11.07.16.1-.02.03-.05.05-.09.05.06.18.16-.03.2.15,0,.03,0,.04-.03.04h.16s-.06.17-.12.1c.17.25.45-.01.45.21h-.03c.27.03.2-.08.27-.19.05.02.1.03.15.05v.35s.1-.18.1-.18c.03.02.09.05.06.13.17-.09,0-.09.11-.19.11.24.47.03.43.35.09-.13-.13-.15.07-.21-.02.34.22,0,.34.18-.08.16-.21.04-.08.23.15-.27.3.11.44.07.04-.24.3-.04.53-.12-.02.07.41.16.62.24v.04c.04-.24.25-.2.4-.25,0,.14-.03.2-.11.26h.15c.03-.08.08-.12.17-.15l-.03.18c.2-.02.38-.24.64-.14,0-.11-.11-.27-.11-.41.04,0,.09,0,.13-.01,0,.06,0,.11-.04.13.02-.01.07-.08.12-.05l-.09.16c.12.05.04-.13.13-.13.01.13.08.08.08.18-.02.02-.09-.04-.11.01.1,0,.24.07.29.16-.02-.07-.02-.17.05-.2.19-.04.09.15.21.19.03-.1.17-.03.14-.22.06,0,.08.08.11.12.09-.1.46-.12.31-.29h-.03s.01-.02.01-.02c.27-.26.69-.05.98-.23l.02.06c.16-.13.41-.18.49-.36.05-.02.17.05.18.13.12-.1.1-.18.35-.17-.09.17.09.07-.11.14.2-.03.29.04.4-.21,0,.18.23.12.29.03l-.18-.04c.08-.07.17-.1.26-.13l.06.21c.5.02.4-.75.89-.55,0-.18-.24.04-.26-.16.17-.08.5.07.56.03.28-.06,0-.4.27-.49-.08-.04-.22-.18-.12-.36.15-.09.38.1.33.23-.03.03-.06.03-.08,0-.03.06-.07.14.04.15l-.03-.08c.12,0,.31-.18.35-.04.06-.15-.04-.13-.14-.1.26-.07.29-.24.52-.37-.06,0-.15-.04-.12-.07.33-.19.01-.22.16-.41.18-.02.17.23.26-.02.16-.06.17.11.18.2.04-.27.37-.26.47-.35,0,.05-.02.09-.03.14.02-.08.06-.13.1-.18l-.16-.04c.06-.04.1-.09.15-.05-.03-.12-.23-.11-.26-.31.12-.03.1-.28.29-.18-.24.2.19.09.06.32.01-.05.05-.1.11-.15.03,0,.03.03.03.06.33-.13-.1-.24.06-.49.08.1.22.06.23,0-.07.1-.19-.05-.21-.19.18-.12.05-.21.11-.29l-.1.08c-.08-.09-.01-.16,0-.29.08.03,0,.14.06.11-.12-.22.33-.2.3-.45.11-.05.2.08.29.03-.04-.27.24-.18.22-.46-.17.02-.14.04-.22-.17l-.04.42-.12-.32c-.04.11,0,.27-.05.33-.07-.16-.04-.13-.18-.13.27-.07-.02-.34.19-.46l.36.13c.28-.23-.05-.55.14-.89l-.09.1c-.14-.08.04-.23,0-.36.07.02.12,0,.16-.02.1.18.15.37,0,.63.02-.05.03-.07.07-.09-.09.78.52,1.4.5,2.19.02.22.16.18.33.24l-.15.13.3.09c.27.18-.14.71.34.86l.08-.12c.05.14.33.3.19.37.03,0,.14-.05.12.03l-.08.07c.12.05.23.1.35.15.13.24-.33.24-.06.54.14.08.5.08.51,0-.04-.04-.06-.15,0-.23l.13.05s.03-.03.04-.04c0,0,0,0,.01.01.38.35.78.63,1.19.87l-.04.04.06-.02c.05.03.11.07.16.1-.02.03-.05.05-.09.05.06.18.16-.03.2.15,0,.03,0,.04-.03.04h.16s-.06.17-.12.1c.17.25.45-.01.45.21h-.03c.27.03.2-.08.27-.19.05.02.1.03.15.05v.35s.1-.18.1-.18c.03.02.09.05.06.13.17-.09,0-.09.11-.19.11.24.47.03.43.35.09-.13-.13-.15.07-.21-.02.34.22,0,.34.18-.08.16-.21.04-.08.23.15-.27.3.11.44.07.04-.24.3-.04.53-.12-.02.07.41.16.62.24v.04c.04-.24.25-.2.4-.25,0,.14-.03.2-.11.26h.15s0,0,0,0ZM663.68,564.6c0-.07.03-.08.07-.08,0,.03,0,.07-.01.12h.02s-.06-.02-.08-.04h0ZM668.11,573.85s0-.02,0-.03c.02,0,.04.02.05.02-.02,0-.04,0-.06,0h0ZM681.34,566.25s0,.03,0,.05c-.06-.03-.17-.05-.17-.14.02-.01.04,0,.05,0,.03.04.07.07.11.1h0ZM681,566.09c.06-.05.09-.1.11-.16.02.08.06.15.11.21-.06-.02-.1-.15-.22-.05h0ZM681.18,566.85s-.04-.1-.03-.16c.04.03.08.03.12.03.03.03.05.05.1.06-.08.17-.17,0-.18.06ZM685.62,573.85s0-.02,0-.03c.02,0,.04.02.05.02-.02,0-.04,0-.06,0Z"/>
      <path class="cls-1" d="M508.13,574.17c.12-.1.1-.18.35-.17-.09.17.09.07-.11.14.2-.03.29.04.4-.21,0,.18.23.12.29.03l-.18-.04c.08-.07.17-.1.26-.13l.06.21c.5.02.4-.75.89-.55,0-.18-.24.04-.26-.16.17-.08.5.07.56.03.28-.06,0-.4.27-.49-.08-.04-.22-.18-.12-.36.15-.09.38.1.33.23-.03.03-.06.03-.08,0-.03.06-.07.14.04.15l-.03-.08c.12,0,.31-.18.35-.04.06-.15-.04-.13-.14-.1.26-.07.29-.24.52-.37-.06,0-.15-.04-.12-.07.33-.19.01-.22.16-.41.18-.02.17.23.26-.02.16-.06.17.11.18.2.04-.27.37-.26.47-.35,0,.05-.02.09-.03.14.02-.08.06-.13.1-.18l-.16-.04c.06-.04.1-.09.15-.05-.03-.12-.23-.11-.26-.31.12-.03.1-.28.29-.18-.24.2.19.09.06.32.01-.05.05-.1.11-.15.03,0,.03.03.03.06.33-.13-.1-.24.06-.49.08.1.22.06.23,0-.07.1-.19-.05-.21-.19.18-.12.05-.21.11-.29l-.1.08c-.08-.09-.01-.16,0-.29.08.03,0,.14.06.11-.12-.22.33-.2.3-.45.11-.05.2.08.29.03-.04-.27.24-.18.22-.46-.17.02-.14.04-.22-.17l-.04.42-.12-.32c-.04.11,0,.27-.05.33-.07-.16-.04-.13-.18-.13.27-.07-.02-.34.19-.46l.36.13c.28-.23-.05-.55.14-.89l-.09.1c-.14-.08.04-.23,0-.36.07.02.12,0,.16-.02.1.18.15.37,0,.63.02-.05.03-.07.07-.09-.09.78.52,1.4.5,2.19.02.22.16.18.33.24l-.15.13.3.09c.27.18-.14.71.34.86l.08-.12c.05.14.33.3.19.37.03,0,.14-.05.12.03l-.08.07c.12.05.23.1.35.15.13.24-.33.24-.06.54.14.08.5.08.51,0-.04-.04-.06-.15,0-.23l.13.05s.03-.03.04-.04c0,0,0,0,.01.01.38.35.78.63,1.19.87l-.04.04.06-.02c.05.03.11.07.16.1-.02.03-.05.05-.09.05.06.18.16-.03.2.15,0,.03,0,.04-.03.04h.16s-.06.17-.12.1c.17.25.45-.01.45.21h-.03c.27.03.2-.08.27-.19.05.02.1.03.15.05v.35s.1-.18.1-.18c.03.02.09.05.06.13.17-.09,0-.09.11-.19.11.24.47.03.43.35.09-.13-.13-.15.07-.21-.02.34.22,0,.34.18-.08.16-.21.04-.08.23.15-.27.3.11.44.07.04-.24.3-.04.53-.12-.02.07.41.16.62.24v.04c.04-.24.25-.2.4-.25,0,.14-.03.2-.11.26h.15c.03-.08.08-.12.17-.15l-.03.18c.2-.02.38-.24.64-.14,0-.11-.11-.27-.11-.41.04,0,.09,0,.13-.01,0,.06,0,.11-.04.13.02-.01.07-.08.12-.05l-.09.16c.12.05.04-.13.13-.13.01.13.08.08.08.18-.02.02-.09-.04-.11.01.1,0,.24.07.29.16-.02-.07-.02-.17.05-.2.19-.04.09.15.21.19.03-.1.17-.03.14-.22.06,0,.08.08.11.12.09-.1.46-.12.31-.29h-.03s.01-.02.01-.02c.27-.26.69-.05.98-.23l.02.06c.16-.13.41-.18.49-.36.05-.02.17.05.18.13.12-.1.11-.18.35-.17-.09.17.09.07-.11.14.2-.03.29.04.4-.21,0,.18.23.12.29.03l-.18-.04c.08-.07.17-.1.26-.13l.06.21c.5.02.4-.75.89-.55,0-.18-.24.04-.26-.16.17-.08.51.07.56.03.28-.06,0-.4.27-.49-.08-.04-.22-.18-.12-.36.15-.09.38.1.33.23-.03.03-.06.03-.08,0-.03.06-.07.14.04.15l-.03-.08c.12,0,.31-.18.35-.04.06-.15-.04-.13-.14-.1.26-.07.29-.24.52-.37-.06,0-.15-.04-.12-.07.33-.19.01-.22.16-.41.18-.02.17.23.26-.02.16-.06.17.11.18.2.04-.27.37-.26.47-.35,0,.05-.02.09-.03.14.02-.08.06-.13.1-.18l-.16-.04c.06-.04.1-.09.15-.05-.03-.12-.23-.11-.26-.31.12-.03.1-.28.29-.18-.24.2.19.09.06.32.01-.05.05-.1.11-.15.03,0,.03.03.03.06.33-.13-.1-.24.06-.49.08.1.22.06.23,0-.07.1-.19-.05-.21-.19.18-.12.05-.21.11-.29l-.1.08c-.08-.09-.01-.16,0-.29.08.03,0,.14.06.11-.12-.22.33-.2.3-.45.11-.05.2.08.29.03-.04-.27.24-.18.22-.46-.17.02-.14.04-.22-.17l-.04.42-.12-.32c-.04.11,0,.27-.05.33-.07-.16-.04-.13-.18-.13.27-.07-.02-.34.19-.46l.36.13c.28-.23-.05-.55.14-.89l-.09.1c-.14-.08.04-.23,0-.36.12.03.18-.03.26-.07-.09,0,.04-.28-.21-.34l.19-.15c.11-.3-.34-.36-.29-.64.14.09.23-.04.33.15,0-.1.03-.18-.06-.19.08-.06-.17-.26-.05-.35-.05-.04-.19-.05-.19-.15.02-.01.06,0,.06,0-.06,0-.1-.16-.23-.06.37-.32-.1-.78.17-1.08-.09-.19-.16-.43-.23-.6.04,0,.06-.02.06.02.04-.28-.4-.05-.35-.36.15-.2.15.11.2,0,.38-.17-.14-.32,0-.58l.04.04c.08-.19-.29-.29-.35-.52,0,0,.04,0,.06-.02-.25-.07-.47-.31-.63-.49.18-.01.13.05.25-.07-.07-.08-.22.15-.36,0,.05-.1.05-.27.19-.38.04.05.07.11.11.17.16-.21-.13-.22-.16-.33l.09-.04c-.2-.24-.41-.11-.57-.39l-.04.07c-.3,0,.03-.2-.23-.23l.17-.2c-.12-.06-.45-.17-.61-.3.22-.04.44.1.63.15-.07-.09-.27-.31-.4-.27.05.02.13.03.13.09-.24.01-.44-.05-.59-.22.38-.31-.32-.53-.2-.91-.22-.07-.37-.22-.51-.39-.15-.16-.31-.34-.52-.47-.07.42-.13-.07-.31.28-.1-.04-.13-.07-.13-.09,0,0,0,0,0,0h0s-.18-.37-.18-.37c-.02-.14.14-.02.17-.11-.21-.15-.01-.2-.11-.37-.04.14-.17.14-.28.02l.1.26c-.41.02-.12-.46-.55-.4l.16-.07c-.2,0-.65-.28-.92-.03-.02-.05-.02-.17.06-.17-.43-.17-1.03.05-1.32-.18l.05-.09c-.09.01-.17.16-.26.04.01-.04.05-.09,0-.1-.05.03-.24.13-.34.06l.1-.09c-.42-.18-.68.23-1.03.27,0-.3-.34-.37-.52-.4v-.04c-.52-.01-.84.33-1.26.53-.18-.13-.42-.09-.68-.02-.26.06-.54.15-.78.18.09.02.07.21.01.27-.12,0-.19.3-.28.06h.04c-.18-.21-.37-.06-.52.03l.14.32c-.31-.1-.56.07-.75.27-.19.2-.35.38-.59.28-.04.13-.14.22-.17.35l-.11-.15c-.26.16-.4.24-.64.53l-.04-.15c-.16.15.18.57.06.71l-.24-.15c-.26.25-.66.41-.7.83-.03-.03-.08-.09-.05-.14-.13.12-.54.44-.2.6-.2-.13-.24.29-.24.52l-.14-.12c.11.26.17.3.11.53-.05.03-.15-.03-.07-.07-.17.11.08.2-.11.34l-.06-.12c-.11.15-.04.17.04.32.02.13-.19.29-.35.25.08.06.16.21.07.29-.06-.01-.08-.06-.09-.09-.24.24.03.5-.21.64-.06-.02-.35.18-.35.18-.03.04-.02.08,0,.13-.04.05-.07.09-.09.14l.18.29c.1.08.2.16.25.2-.28.06-.45.27-.61.3,0-.09.02-.18.09-.26-.09-.19-.16-.43-.23-.6.04,0,.06-.02.06.02.04-.28-.4-.05-.35-.36.15-.2.15.11.2,0,.38-.17-.14-.32,0-.58l.04.04c.07-.19-.29-.29-.35-.52,0,0,.04,0,.06-.02-.25-.07-.47-.31-.63-.49.18-.01.13.05.25-.07-.07-.08-.22.15-.36,0,.05-.1.05-.27.19-.38.04.05.07.11.11.17.16-.21-.13-.22-.16-.33l.09-.04c-.2-.24-.41-.11-.57-.39l-.04.07c-.3,0,.03-.2-.23-.23l.17-.2c-.12-.06-.45-.17-.61-.3.22-.04.44.1.63.15-.07-.09-.27-.31-.4-.27.05.02.13.03.13.09-.24.01-.44-.05-.59-.22.38-.31-.32-.53-.2-.91-.22-.07-.37-.22-.51-.39-.15-.16-.31-.34-.52-.47-.07.42-.13-.07-.31.28-.1-.04-.13-.07-.13-.09,0,0,0,0,0,0h0s-.18-.37-.18-.37c-.02-.14.14-.02.17-.11-.21-.15-.01-.2-.11-.37-.04.14-.17.14-.28.02l.1.26c-.41.02-.12-.46-.55-.4l.16-.07c-.2,0-.65-.28-.92-.03-.02-.05-.02-.17.06-.17-.43-.17-1.03.05-1.32-.18l.05-.09c-.09.01-.17.16-.26.04.01-.04.05-.09,0-.1-.05.03-.24.13-.34.06l.1-.09c-.42-.18-.68.23-1.03.27,0-.3-.34-.37-.52-.4v-.04c-.52-.01-.84.33-1.26.53-.18-.13-.42-.09-.68-.02-.26.06-.54.15-.78.18.09.02.07.21.01.27-.12,0-.19.3-.28.06h.04c-.18-.21-.37-.06-.52.03l.14.32c-.31-.1-.56.07-.75.27-.19.2-.35.38-.59.28-.04.13-.14.22-.17.35l-.11-.15c-.26.16-.4.24-.64.53l-.04-.15c-.16.15.18.57.06.71l-.24-.15c-.26.25-.66.41-.7.83-.03-.03-.08-.09-.05-.14-.13.12-.54.44-.2.6-.2-.13-.24.29-.24.52l-.14-.12c.11.26.17.3.11.53-.05.03-.15-.03-.07-.07-.17.11.08.2-.11.34l-.06-.12c-.11.15-.04.17.04.32.02.13-.19.29-.35.25.08.06.16.21.07.29-.06-.01-.08-.06-.09-.09-.24.24.03.5-.21.64-.06-.02-.09-.01-.11,0,.09-.23.17-.41.17-.39-.15-.06-.25.12-.41-.12.06.21.22.55.08.71-.02,0-.04,0-.06,0v-.03s-.04.08-.02.13c-.04.05-.07.09-.09.14-.14-.02-.13.21-.17.3.18.04.12.16.29.07-.02.01-.02-.02,0-.09,0-.02,0-.03,0-.05h.01c.01-.05.03-.14.05-.23.07.1.12.2,0,.28.1.08.2.16.25.2-.29.06-.47.3-.63.31.04.32-.06.75.27.96.04.09-.1.09-.16.12-.03-.05-.02-.11-.07-.14.07.18.01.52.25.56-.11.21-.22-.12-.18.17l-.07-.04c-.19.3-.02.54.13.77.16.23.31.45.12.81.02-.05.03-.07.07-.09-.09.78.52,1.4.5,2.19.02.22.16.18.33.24l-.15.13.3.09c.27.18-.14.71.34.86l.08-.12c.05.14.33.3.19.37.03,0,.14-.05.12.03l-.08.07c.12.05.23.1.35.15.13.24-.33.24-.06.54.14.08.5.08.51,0-.04-.04-.06-.15,0-.23l.13.05s.03-.03.04-.04c0,0,0,0,.01.01.38.35.78.63,1.19.87l-.04.04.06-.02c.05.03.11.07.16.1-.02.03-.05.05-.09.05.06.18.16-.03.2.15,0,.03,0,.04-.03.04h.16s-.06.17-.12.1c.17.25.45-.01.45.21h-.03c.27.03.2-.08.27-.19.05.02.1.03.15.05v.35s.1-.18.1-.18c.03.02.09.05.06.13.17-.09,0-.09.11-.19.11.24.47.03.43.35.09-.13-.13-.15.07-.21-.02.34.22,0,.34.18-.08.16-.21.04-.08.23.15-.27.3.11.44.07.04-.24.3-.04.53-.12-.02.07.41.16.62.24v.04c.04-.24.25-.2.4-.25,0,.14-.03.2-.11.26h.15c.03-.08.08-.12.17-.15l-.03.18c.2-.02.38-.24.64-.14,0-.11-.11-.27-.11-.41.04,0,.09,0,.13-.01,0,.06,0,.11-.04.13.02-.01.07-.08.12-.05l-.09.16c.12.05.04-.13.13-.13.01.13.08.08.08.18-.02.02-.09-.04-.11.01.1,0,.24.07.29.16-.02-.07-.02-.17.05-.2.19-.04.09.15.21.19.03-.1.17-.03.14-.22.06,0,.08.08.11.12.09-.1.46-.12.31-.29h-.03s.01-.02.01-.02c.27-.26.69-.05.98-.23l.02.06c.16-.13.41-.18.49-.36.05-.02.17.05.18.13h0ZM518.15,573.82s.04.02.05.02c-.02,0-.04,0-.06,0,0-.01,0-.02,0-.03ZM513.7,566.85s-.04-.1-.03-.16c.04.03.08.03.12.03.03.03.05.05.1.06-.08.17-.17,0-.18.06ZM513.86,566.25s0,.03,0,.05c-.06-.03-.17-.05-.17-.14.02-.01.04,0,.05,0,.03.04.07.07.11.1h0ZM513.64,565.93c.02.08.06.15.11.21-.06-.02-.1-.15-.22-.05.06-.05.09-.1.11-.16h0ZM496.2,564.6c0-.07.03-.08.07-.08,0,.03,0,.07-.01.12h.02s-.06-.02-.08-.04h0ZM500.64,573.85s0-.02,0-.03c.02,0,.04.02.05.02-.02,0-.04,0-.06,0h0Z"/>
      <path class="cls-1" d="M463.42,477.19c-.42-.18-.68.23-1.03.27,0-.3-.34-.37-.52-.4v-.04c-.52-.01-.84.33-1.26.53-.18-.13-.42-.09-.68-.02-.26.06-.54.15-.78.18.09.02.07.21.01.27-.12,0-.19.3-.28.06h.04c-.18-.21-.37-.06-.52.03l.14.32c-.31-.1-.56.07-.75.27-.19.2-.35.38-.59.28-.04.13-.14.22-.17.35l-.11-.15c-.26.17-.4.24-.64.53l-.04-.15c-.16.15.18.57.06.71l-.24-.15c-.26.25-.66.41-.7.83-.03-.03-.08-.09-.05-.14-.13.12-.54.44-.2.6-.2-.13-.24.29-.24.52l-.14-.12c.11.26.17.3.11.53-.05.03-.15-.03-.07-.07-.17.11.08.2-.11.34l-.06-.12c-.11.15-.04.17.04.32.02.13-.19.29-.35.25.08.06.16.21.07.29-.06-.01-.08-.06-.09-.09-.24.24.03.5-.21.64-.06-.02-.09-.01-.11,0,.09-.23.17-.41.17-.39-.15-.06-.25.12-.41-.12.06.21.22.55.08.71-.02,0-.04,0-.06,0v-.03s-.04.08-.02.13c-.04.05-.07.09-.09.14-.14-.02-.13.21-.17.3.18.04.12.16.29.07-.02.01-.02-.02,0-.09,0-.02,0-.03,0-.05h.01c.01-.05.03-.14.05-.23.07.1.12.2,0,.28.1.08.2.16.25.2-.29.06-.47.3-.63.31.04.32-.06.75.27.96.04.09-.1.09-.16.12-.03-.05-.02-.11-.07-.14.07.18.01.52.25.56-.11.21-.22-.12-.18.17l-.07-.04c-.19.3-.02.54.13.77.16.23.31.45.12.81.02-.05.03-.07.07-.09-.09.78.52,1.4.5,2.19.02.22.16.18.33.24l-.15.13.3.09c.27.18-.14.71.34.86l.08-.12c.05.14.33.3.19.37.03,0,.14-.05.12.03l-.08.07c.12.05.23.1.35.15.13.24-.33.24-.06.54.14.08.5.08.51,0-.04-.04-.06-.15,0-.23l.13.05s.03-.03.04-.04c0,0,0,0,.01.01.38.35.78.63,1.19.87l-.04.04.06-.02c.05.03.11.07.16.1-.02.03-.05.05-.09.05.06.18.16-.03.2.15,0,.03,0,.04-.03.04h.16s-.06.17-.12.1c.17.25.45-.01.45.21h-.03c.27.03.2-.08.27-.19.05.02.1.03.15.05v.35s.1-.18.1-.18c.03.02.09.05.06.13.17-.09,0-.09.11-.19.11.24.47.03.43.35.09-.13-.13-.15.07-.21-.02.34.22,0,.34.18-.08.16-.21.04-.08.23.15-.27.3.11.44.07.04-.24.3-.04.53-.12-.02.07.41.16.62.24v.04c.04-.24.25-.2.4-.25,0,.14-.03.2-.11.26h.15c.03-.08.08-.12.17-.15l-.03.18c.2-.02.38-.24.64-.14,0-.11-.11-.28-.11-.41.04,0,.09,0,.13-.01,0,.06,0,.11-.04.13.02-.01.07-.08.12-.05l-.09.16c.12.05.04-.13.13-.13.01.13.08.08.08.18-.02.02-.09-.04-.11.01.1,0,.24.07.29.16-.02-.07-.02-.17.05-.2.19-.04.09.15.21.19.03-.1.17-.03.14-.22.06,0,.08.08.11.12.09-.1.46-.12.31-.29h-.03s.01-.02.01-.02c.27-.26.69-.05.98-.23l.02.06c.16-.13.41-.18.49-.36.05-.02.17.05.18.13.12-.1.11-.18.35-.17-.09.17.09.07-.11.14.2-.03.29.04.4-.21,0,.18.23.12.29.03l-.18-.04c.08-.07.17-.1.26-.13l.06.21c.5.02.4-.75.89-.55,0-.18-.24.04-.26-.16.17-.08.5.07.56.03.28-.06,0-.4.27-.49-.08-.04-.22-.18-.12-.36.15-.09.38.1.33.23-.03.03-.06.03-.08,0-.03.06-.07.14.04.15l-.03-.08c.12,0,.31-.18.35-.04.06-.15-.04-.13-.14-.1.26-.07.29-.24.52-.37-.06,0-.15-.04-.12-.07.33-.19.01-.22.16-.41.18-.02.17.23.26-.02.16-.06.17.11.18.2.04-.27.37-.26.47-.35,0,.05-.02.09-.03.14.02-.08.06-.13.1-.18l-.16-.04c.06-.04.1-.09.15-.05-.03-.12-.23-.11-.26-.31.12-.03.1-.28.29-.18-.24.2.19.09.06.32.01-.05.05-.1.11-.15.03,0,.03.03.03.06.33-.13-.1-.24.06-.49.08.1.22.06.23,0-.07.1-.19-.05-.21-.19.18-.12.05-.21.11-.29l-.1.08c-.08-.09-.01-.16,0-.29.08.03,0,.14.06.11-.12-.22.33-.2.3-.45.11-.05.2.08.29.03-.04-.27.24-.18.22-.46-.17.02-.14.04-.22-.17l-.04.42-.12-.32c-.04.11,0,.27-.05.33-.07-.16-.04-.13-.18-.13.27-.07-.02-.34.19-.46l.36.13c.28-.23-.05-.55.14-.89l-.09.1c-.14-.08.04-.23,0-.36.07.02.12,0,.16-.02.1.18.15.37,0,.63.02-.05.03-.07.07-.09-.09.78.52,1.4.5,2.19.02.22.16.18.33.24l-.15.13.3.09c.27.18-.14.71.34.86l.08-.12c.05.14.33.3.19.37.03,0,.14-.05.12.03l-.08.07c.12.05.23.1.35.15.13.24-.33.24-.06.54.14.08.5.08.51,0-.04-.04-.06-.15,0-.23l.13.05s.03-.03.04-.04c0,0,0,0,.01.01.38.35.78.63,1.19.87l-.04.04.06-.02c.05.03.11.07.16.1-.02.03-.05.05-.09.05.06.18.16-.03.2.15,0,.03,0,.04-.03.04h.16s-.06.17-.12.1c.17.25.45-.01.45.21h-.03c.27.03.2-.08.27-.19.05.02.1.03.15.05v.35s.1-.18.1-.18c.03.02.09.05.06.13.17-.09,0-.09.11-.19.11.24.47.03.43.35.09-.13-.13-.15.07-.21-.02.34.22,0,.34.18-.08.16-.21.04-.08.23.15-.27.3.11.44.07.04-.24.3-.04.53-.12-.02.07.41.16.62.24v.04c.04-.24.25-.2.4-.25,0,.14-.03.2-.11.26h.15c.03-.08.08-.12.17-.15l-.03.18c.2-.02.38-.24.64-.14,0-.11-.11-.28-.11-.41.04,0,.09,0,.13-.01,0,.06,0,.11-.04.13.02-.01.07-.08.12-.05l-.09.16c.12.05.04-.13.13-.13.01.13.08.08.08.18-.02.02-.09-.04-.11.01.1,0,.24.07.29.16-.02-.07-.02-.17.05-.2.19-.04.09.15.21.19.03-.1.17-.03.14-.22.06,0,.08.08.11.12.09-.1.46-.12.31-.29h-.03s.01-.02.01-.02c.27-.26.69-.05.98-.23l.02.06c.16-.13.41-.18.49-.36.05-.02.17.05.18.13.12-.1.11-.18.35-.17-.09.17.09.07-.11.14.2-.03.29.04.4-.21,0,.18.23.12.29.03l-.18-.04c.08-.07.17-.1.26-.13l.06.21c.5.02.4-.75.89-.55,0-.18-.24.04-.26-.16.17-.08.5.07.56.03.28-.06,0-.4.27-.49-.08-.04-.22-.18-.12-.36.15-.09.38.1.33.23-.03.03-.06.03-.08,0-.03.06-.07.14.04.15l-.03-.08c.12,0,.31-.18.35-.04.06-.15-.04-.13-.14-.1.26-.07.29-.24.52-.37-.06,0-.15-.04-.12-.07.33-.19.01-.22.16-.41.18-.02.17.23.26-.02.16-.06.17.11.18.2.04-.27.37-.26.47-.35,0,.05-.02.09-.03.14.02-.08.06-.13.1-.18l-.16-.04c.06-.04.1-.09.15-.05-.03-.12-.23-.11-.26-.31.12-.03.1-.28.29-.18-.24.2.19.09.06.32.01-.05.05-.1.11-.15.03,0,.03.03.03.06.33-.13-.1-.24.06-.49.08.1.22.06.23,0-.07.1-.19-.05-.21-.19.18-.12.05-.21.11-.29l-.1.08c-.08-.09-.01-.16,0-.29.08.03,0,.14.06.11-.12-.22.33-.2.3-.45.11-.05.2.08.29.03-.04-.27.24-.18.22-.46-.17.02-.14.04-.22-.17l-.04.42-.12-.32c-.04.11,0,.27-.05.33-.07-.16-.04-.13-.18-.13.27-.07-.02-.34.19-.46l.36.13c.28-.23-.05-.55.14-.89l-.09.1c-.14-.08.04-.23,0-.36.12.03.18-.03.26-.07-.09,0,.04-.28-.21-.34l.19-.15c.11-.3-.34-.36-.29-.64.14.09.23-.04.33.15,0-.1.03-.18-.06-.19.08-.06-.17-.26-.05-.35-.05-.04-.19-.05-.19-.15.02-.01.06,0,.06,0-.06,0-.1-.16-.23-.06.37-.32-.1-.78.17-1.08-.09-.19-.16-.43-.23-.6.04,0,.06-.02.06.02.04-.28-.4-.05-.35-.36.15-.2.15.11.2,0,.38-.17-.14-.32,0-.58l.04.04c.07-.19-.29-.29-.35-.52,0,0,.04,0,.06-.02-.25-.07-.47-.31-.63-.49.18-.01.13.05.25-.07-.07-.08-.22.15-.36,0,.05-.1.05-.27.19-.38.04.05.07.11.11.17.16-.21-.13-.22-.16-.33l.09-.04c-.2-.24-.41-.11-.57-.39l-.04.07c-.3,0,.03-.2-.23-.23l.17-.2c-.12-.06-.45-.17-.61-.3.22-.04.44.1.63.15-.07-.09-.27-.31-.4-.27.05.02.13.03.13.09-.24.01-.44-.05-.59-.22.38-.31-.32-.53-.2-.91-.22-.07-.37-.22-.51-.39-.15-.16-.31-.34-.52-.47-.07.42-.13-.07-.31.28-.1-.04-.13-.07-.13-.09,0,0,0,0,0,0h0s-.18-.37-.18-.37c-.02-.14.14-.02.17-.11-.21-.15-.01-.2-.11-.37-.04.14-.17.14-.28.02l.1.26c-.41.02-.12-.46-.55-.4l.16-.07c-.2,0-.65-.28-.92-.03-.02-.05-.02-.17.06-.17-.43-.17-1.03.05-1.32-.18l.05-.09c-.09.01-.17.16-.26.04.01-.04.05-.09,0-.1-.05.03-.24.13-.34.06l.1-.09c-.42-.18-.68.23-1.03.27,0-.3-.34-.37-.52-.4v-.04c-.52-.01-.84.33-1.26.53-.18-.13-.42-.09-.68-.02-.26.06-.54.15-.78.18.09.02.07.21.01.27-.12,0-.19.3-.28.06h.04c-.18-.21-.37-.06-.52.03l.14.32c-.31-.1-.56.07-.75.27-.19.2-.35.38-.59.28-.04.13-.14.22-.17.35l-.11-.15c-.26.17-.4.24-.64.53l-.04-.15c-.16.15.18.57.06.71l-.24-.15c-.26.25-.66.41-.7.83-.03-.03-.08-.09-.05-.14-.13.12-.54.44-.2.6-.2-.13-.24.29-.24.52l-.14-.12c.11.26.17.3.11.53-.05.03-.15-.03-.07-.07-.17.11.08.2-.11.34l-.06-.12c-.11.15-.04.17.04.32.02.13-.19.29-.35.25.08.06.16.21.07.29-.06-.01-.08-.06-.09-.09-.24.24.03.5-.21.64-.06-.02-.35.18-.35.18-.03.04-.02.08,0,.13-.04.05-.07.09-.09.14l.18.29c.1.08.2.16.25.2-.28.06-.45.27-.61.3,0-.09.02-.18.09-.26-.09-.19-.16-.43-.23-.6.04,0,.06-.02.06.02.04-.28-.4-.05-.35-.36.15-.2.15.11.2,0,.38-.17-.14-.32,0-.58l.04.04c.07-.19-.29-.29-.35-.52,0,0,.04,0,.06-.02-.25-.07-.47-.31-.63-.49.18-.01.13.05.25-.07-.07-.08-.22.15-.36,0,.05-.1.05-.27.19-.38.04.05.07.11.11.17.16-.21-.13-.22-.16-.33l.09-.04c-.2-.24-.41-.11-.57-.39l-.04.07c-.3,0,.03-.2-.23-.23l.17-.2c-.12-.06-.45-.17-.61-.3.22-.04.44.1.63.15-.07-.09-.27-.31-.4-.27.05.02.13.03.13.09-.24.01-.44-.05-.59-.22.38-.31-.32-.53-.2-.91-.22-.07-.37-.22-.51-.39-.15-.16-.31-.34-.52-.47-.07.42-.13-.07-.31.28-.1-.04-.13-.07-.13-.09,0,0,0,0,0,0h0s-.18-.37-.18-.37c-.02-.14.14-.02.17-.11-.21-.15-.01-.2-.11-.37-.04.14-.17.14-.28.02l.1.26c-.41.02-.12-.46-.55-.4l.16-.07c-.2,0-.65-.28-.92-.03-.02-.05-.02-.17.06-.17-.43-.17-1.03.05-1.32-.18l.05-.09c-.09.01-.17.16-.26.04.01-.04.05-.09,0-.1-.05.03-.24.13-.34.06l.1-.09h0ZM453.52,484.41c0-.07.03-.08.07-.08,0,.03,0,.07-.01.12h.02s-.06-.02-.08-.04h0ZM457.96,493.67s0-.02,0-.03c.02,0,.04.02.05.02-.02,0-.04,0-.06,0h0ZM475.47,493.64s.04.02.05.02c-.02,0-.04,0-.06,0,0-.01,0-.02,0-.03ZM471.02,486.66s-.04-.1-.03-.16c.04.03.08.03.12.03.03.03.05.05.1.06-.08.17-.17,0-.18.06h0ZM471.19,486.07s0,.03,0,.05c-.06-.03-.17-.05-.17-.14.02-.01.04,0,.05,0,.03.04.07.07.11.1h0ZM470.96,485.75c.02.08.06.15.11.21-.06-.02-.1-.15-.22-.05.06-.05.09-.1.11-.16Z"/>
      <path class="cls-1" d="M569.96,567.51c1.59-.79,3.18-1.38,4.35-2.49.02.03-.09.18-.21.29.25-.18.63-.37.49-.51l-.22.22c-.56.05.86-1.19,1.17-1.36.3-.18.58-.34.5.22.13-.17.69-1.05,1.39-1.77.07.07.37-.62.98-1.21.01.05.07.06.05.12.39-.55.62-1.1.88-1.63.22-.61.51-1.18.93-1.84.18.61.35-.42.71-.35l.26-.82-.31.24c.32-.68.26-1.4.61-1.95,0,0-.49-.13-.12-1.03-.02.2.21-.69.52-1.01h0c-.03-.38-.07-.77.13-1.27.14-.11.37.19.46.12-.19-.41.22-1.71-.03-2.21.05.16.24.19.28.15l-.2-.33c.13-.32.17-.37.31-.3.15-1.01-.49.27-.17-.91.01.1.05.05.07.26.25-1.2.02-2.34.19-3.45.38-.32.06.98.37.61.01-.81-.13-1.65-.21-2.47-.13-.82-.23-1.63-.24-2.41,0,.1,0,.19-.02.29-.53-.18.15-1.17-.16-1.93.05.19.31.22.24.18,0-.54-.12-1.07-.25-1.67-.13-.6-.33-1.26-.55-2.03l.16.17c0-.32-.05-.73-.11-1.14-.07-.41-.16-.83-.2-1.17-.17-.17-.57-2.33-.91-3.23-.39-.89-.74-1.76-.74-2.72.07.21.27.47.22.3l-.61-1.46c-.17.19-.34-.41-.33-.74-.05.07-.15,0-.21.05-.54-.58-.47-1.1-.47-1.1-.19-.37-.5-.67-.63-1.1.17-.27.28.37.49.31-.26-.58-.93-.97-.91-1.6.17.22.32.58.49.8.04-.7-.05-.74-.2-1.18v.04s-.31-1.04-.31-1.04c0,0-1.21-2.6-1.09-2.54-.45-.34-2-3.84-3.23-4.8-.8-.83-1.21-.91-1.9-1.5-.08-.1-.17-.2-.25-.31,0-.21.49.12.49.12-.31-.57-.64-.93-1.11-1.31l-.17.06-.45-.28c-1.54-1.65-1.86-2.26-3.58-3.28-.03-.01-1.38-.79-1.4-.8.13-.17.73.34.76.15.03-.2-1.18-.95-1.94-1.29-.39.04-.15-.17-.5-.07,0,0-.29-.25-.64-.14-.09-.11-.24-.17-.46-.2-.17.09-.33.18-.49.27l-.45.32c-.16-.15.38-.44-.32-.39-.41.3-.62.33-1.1.67-.11-.09-1.05.22-1.17.55-.27,0-.64.18-.95.34-.3.16-.56.28-.64.08-.09.16-.56.73-.92.98.2-.43-.16-.22-.57.05-.41.27-.87.59-.95.31-.2.73-1.58,1.5-2.16,2.42.02-.07.05-.2.14-.25-.46.38-.69.39-1.01.6.22.33-.56.93-.97.85.25.19-.63,1.13-.27,1.12-.53.27-.39.29-.82.3.3.38-.28.44-.34.99-.68.48-.48-.12-.91.67-.18.13-.19,0-.15-.15.04-.15.13-.33.13-.33-.55.72.02.55.07.83-.55.92-.51.24-.87.43-.3.62-.33,1.21-.6,1.63-.07,0-.14.07-.14-.07-.09.5-.81,1.88-1.28,3.01h-.01s-.01.06-.02.09c-.21.51-.37.97-.38,1.25l.07-.03c-.09.39-.18.75-.33,1.01-.36.01-.58-.3-1.07.93.09.33.28-.02.38.31-.03.47-.12.78-.23,1-.1.23-.22.38-.34.52-.24.27-.48.5-.31,1.24.18.39.59.53.4,1.52-.14-.11-.19.53-.07.71.12.18.35,1.21.49,1.55l-.25.27c.32.7.81,1.36,1.41,1.89.59.54,1.26.97,1.94,1.35-.12.04-.41-.02-.15.26,1.8.9,3.82,1.61,5.59,2.08,0,0,1.72-.02,1.47.04,1.26-.1,3.47-.3,4.74-.03l-.25.09c.99.1,1.1-.6,2.02-.37l-.17.06c2.14.04,4.45-.42,6.1-.16.26-.44,2.1-.04,2.17-.62,1.22.16.9.29,2.58.31.44-.01.62-.42,1.16-.51l.03.3c.1-.06.25-.12.32-.17.04-.05.1-.11.17-.16.03.12.03.24,0,.36.05-.02.12-.04.17-.03-.02-.06-.03-.17.02-.26.11-.03.22.02.2.14.01.11,0,.22-.02.3-.03.04-.05.24-.08.37-.03.12-.07.2-.11.21.1.28.18.56.24.85.07.29.02.54-.08.32.33.91.15,1.06.21,1.09-.21.41-.31,1.33-.47,2.01l-.16-.19c-.37,1.15-.95,2.41-1.95,3.47.42-.31-.48.66-.62.84-.09-.04,0-.19-.06-.3-.07.34-1.06.49-1.19.98l-.09-.05c-1.21.83-1.78,1.24-2.89,1.79.09.25-.37.41-.64.76-.89.29-1.94.44-3,.78-.72.36-.16.29-.45.54-.13-.22-1.21.1-.69-.23-1.3.38-1.66.48-3.32,1,.2.07.42.07.33.17-.3.1-.72.03-.7-.1l.08-.04c-.92.35-2.07.32-3.17.29-1.07-.02-2.06-.11-2.83.18l.09-.03-1.6.32c-.75-.03.44-.2-.11-.34-1.74.45-2.78-.03-4.23.27-.58-.35-1.59-.33-2.67-.21-1.09.11-2.21.31-3.13.29l.14.14c-.21.14-.32.14-.52.14-.19-.03-.41.04-.57.09.05.12.7-.18.34.1l-.65.38-.6.4c-.39.29-.79.6-1.15.99-.37.38-.69.83-.95,1.34-.24.52-.42,1.09-.46,1.67-.1,1.16.2,2.27.62,3.2.44.94,1,1.75,1.62,2.47.94,1.02,1.14-.06,2.13,1.32l-.57-.06c2.28,1.44,4.46,3.13,6.94,3.88-.17,0-.21.09-.44-.01.39.44,1.83.8,1.91.62.36.16.02.19.22.37.46.33,1.37.19,1.57.49.03.04-.08.03-.18.02.44.07,1.45.49,1.22.16.88.4,1.79.38,2.49.7.54-.18,1.57.48,1.81.08-.15.43,1.6.62,2.22.47-.22.11.51.19.25.35.69.06,1.33.02,1.23-.21,1.26.61,2.55-.34,3.28.29,2.06-.32,3.93-.77,5.68-1.36.05.47-1.98.51-1.82.93,1.72-.53,2.59-1.16,4.25-1.69.45-.11-.17.27-.29.39h0ZM547.43,533.06c-.16-.09-.31-.17-.39-.23.08.05.19.12.39.23,0,0,0,0,0,0Z"/>
      <path class="cls-1" d="M496.15,549.33c.33.09.65.17,1,.31.36.12.75.29,1.21.57-.06.02-.04.09-.13.07.78.34,1.5.51,2.24.66.39.1.79.15,1.21.25.41.11.85.19,1.33.34-.66.29.64.29.69.63l1.1.03-.41-.23c.47.08.92.02,1.35,0,.43-.02,1.23-.06,1.23-.06.92-.17-.04-.44,1.17-.31-.25.03.91.02,1.38.25h0c.45-.1.92-.21,1.59-.1.17.12-.15.4-.04.48.45-.29,2.13,0,2.71-.32-.19.07-.2.26-.14.3l.38-.24c.42.08.49.12.41.27,1.28.05-.4-.45,1.11-.26-.12.02-.06.06-.31.1,1.54.1,2.94-.25,4.34-.26.44.33-1.21.19-.71.46,1-.1,2.05-.35,3.08-.58,1.02-.27,2.03-.54,2.98-.79l-.37.06c.06-.29.43-.32.9-.35.46-.04,1.03-.12,1.46-.4-.22.12-.2.38-.16.3,1.31-.42,2.57-1.19,4.16-2.5l-.14.25c.38-.16.8-.5,1.24-.81.42-.35.84-.7,1.17-1,.09-.28.45-.62.1-.54,1.2-.71,1.93-1.87,2.38-3.06.22-.59.38-1.26.47-1.83.06-.29.13-.58.22-.86.08-.29.18-.57.3-.84-.04.28,0,.68.04.46.08-.67.13-1.34.17-2-.24.13-.17.24-.39.63-.1-.27-.13-.83-.08-1.32.05.9.37.03.52-.34-.07.06-.14-.08-.21-.05.48-1-.42-.21-.06-1.59l.11.08c-.03-.53-.15-1.02-.1-1.59.27-.23.1.56.31.61.01-.8-.43-1.59-.16-2.3.07.34.06.83.12,1.17.33-.78.25-.87.31-1.46l.06-.95c-.67-1-.12-2.04-.57-3.37.43,1.3.24.21.54.31.08-.34.16-.87.25-.72-.24-.63.17-1.06-.18-1.95l-.04-.41c-.34-1.27.36-2.98-.05-4.79-.15-1.42-.37-1.82-.52-2.97v-.46c.04-.08.09-.05.13.02-.07-.25-.1-.52-.12-.78-.12-.53-.13-1.08-.02-1.61h-.01v-.12l.03-.04s0-.07,0-.11l-.02.03v-7.81s-.03-.06-.05-.1c.21-.01.44.05.6-.07.09-.06.16-.21.09-.53-.04-.16-.13-.38-.36-.62-.22-.24-.61-.44-.96-.53-.17,0-.31.02-.39.04l-.3.05-.59.11-.36-.24.98.04c-.54-.23-.91-.07-1.31.03-.09-.12-.25-.21-.47-.27l-1.17.37c-.13-.18.53-.32-.23-.46-.55.17.49.42-.4.51-.55-.23-.37-.39-1.04-.25-.09-.12.06-.19.32-.22-.59.11-1.54-.02-1.85.2-.57-.28-1.96-.04-1.88-.46-.19.09-1.04.28-1.57.27,1-.46-2-.14-1.71-.67-.19.11-.47.17-.78.19-.16.01-.33.02-.51.02-.13,0-.26,0-.4,0-.16,0-.32-.01-.49-.02-.6-.01-1.11.12-1.51.53-.19.2-.31.44-.37.69-.05.24-.08.5-.05.75-.03-.09-.06-.26-.05-.4-.05.21-.07.41-.08.59-.02.22-.04.4-.07.58-.05.22-.11.37-.15.61.38.09.47,1.21.71,1.81-.36.87-.45-.54-.8-.27.31-.04.31,1.53.57,1.23-.23.67-.11.58-.42.92.48.13.08.63.38,1.19-.23.97-.44.24-.3,1.31-.14.5-.31-.45-.31-.45,0,1.08.35.52.56.76.11,1.3-.26.59-.44,1.02.1.81.43,1.45.41,2.05-.06.04-.08.16-.15.02.14.44.15,1.07.16,1.73,0,.65,0,1.93-.03,1.95.19-.15.3.35.03.29.01.48.04.94-.03,1.41-.07.46-.23.89-.44,1.17-.18-.02-.86.14-1.32.57-.06.34.27.12.19.46-.6.79-1.11.79-1.45.75-.36-.03-.59-.14-1.26.33-.31.32-.34.79-1.48.85l.28-.46c-1.4.29-2,.75-2.76.85l-.19-.31c-1.51.23-3.23.51-4.94.41.1-.09.4-.16.02-.3-1.14-.04-2.29-.13-3.35-.43-1.06-.29-2.01-.78-2.79-1.33-.25-.04-.51-.09-.78-.15-.14-.11-.19-.29,0-.23-.54-.53-.14.12-.5,0-.36-.25-.34-.49-.08-.38-.15-.09-.31-.18-.48-.28-.16-.12-.34-.25-.52-.38-.1-.07-.18-.14-.24-.2-.07-.07-.15-.12-.21-.21-.14-.16-.28-.34-.41-.55-.52-.81-.86-1.83-.94-2.59l.17.25c-.25-1.15-.95-1.12-.99-2.27l.1.2c-.54-2.55-1.32-5.4-1.68-7.53-.26-.12-.45-.78-.7-1.39-.23-.62-.53-1.18-.82-1.13-.25-.76-.31-1.06-.43-1.41-.12-.36-.29-.79-.92-1.76-.36-.51-.86-.48-1.41-.99l.2-.22-.96-.48c-.06-.21-.13-.41-.2-.63-.21-.13-.22.1-.31.13-.12-.07-.24-.16-.36-.25-.13-.08-.26-.17-.39-.26-.26-.18-.5-.38-.72-.56-.46-.32-.8-.61-.78-.69-.43-.16-.9-.23-1.34-.34-.45-.08-.9-.12-1.35-.17.06-.08.1-.16.07-.24-.04-.09-.06-.18-.75-.11.17.09-.11.17-.15.23-.64-.28-2.15-.23-3.21.01l.18-.24c-1.99.23-4,1.05-5.92,1.95.74-.24.45.11-.19.67-.71.32-.63-.08-.27-.38l-.8.54c-.09-.06.08-.21.08-.34-.26.34-1.62.53-1.93,1.12l-.1-.05c-1.8,1.12-2.49,1.79-3.84,2.83.14.24-.41.6-.67,1.09-1.01.72-2.19,1.47-3.25,2.53-.66.83-.06.38-.29.82-.23-.12-1.26.96-.84.28-1.22,1.32-1.56,1.69-2.88,3.54.24-.12.45-.3.42-.14-.23.34-.68.65-.73.53l.05-.1c-.67,1.09-1.71,2.13-2.66,3.19-.95,1.05-1.81,2.13-2.1,3.15l.04-.11c-.28.66-.55,1.32-.79,1.99-.49.86.11-.61-.37-.03-.37,1.18-.67,2.09-.91,2.97-.23.88-.39,1.75-.24,2.76-.36.78-.22,2.27.37,3.67.58,1.42,1.48,2.65,2.02,3.61l.05-.21c.47.32.37.55.63.89.05-.14-.3-.54,0-.36,3.36,3.18,7.88,5,12.26,5.86,1.62.27,1.03-.73,3-.12l-.61.26c3.28-.06,6.66.33,9.8-.22-.18.09-.18.18-.49.2.68.2,2.47-.19,2.46-.38.49-.03.13.16.44.22.34.03.76-.09,1.13-.2.19-.06.36-.11.52-.14.16-.03.35-.06.47-.02.06.01.63-.1,1.03-.31.47-.23,1.61-1.27,2-1.75.39-.48.69-.95,1.02-1.35.11-.71,1.13-1.86.81-2.22.05.03.1.03.16-.01.38,2.02.88,3.21,1.28,5.28.08.57-.26-.27-.38-.44.33,1.06.66,2.14,1.16,3.14.51.99,1.14,1.86,1.91,2.53-.03-.41,1.6,1.04,1.87,1.36.29.33.57.62-.08.57.23.13.54.26.58.12.28.27.33.4-.07.28.59.4.84.43,1.05.51.21.06.39.14.94.46-.05.08-.29-.02-.47,0h0Z"/>
      <path class="cls-1" d="M754.25,537.26c.09-1.61.3-3.39.28-5.32-.14-1.36-.23-.4-.39-1.01.25-.1.23-2.03.4-1.03-.04-2.32-.05-2.97-.25-5.9-.1.32-.15.68-.23.49-.04-.53.1-1.21.22-1.14,0,0,.75-7.47.23-10.09l.03.15-.27-2.72c.04-1.25.19.75.34-.18-.41-2.94.06-4.64-.22-7.06.73-1.87-.05-6.64.42-9.17l-.17.15c-.17-.65.1-.79.14-1.27-.13.07-.16.71-.25.3-.05-1.38-.06-2.79-.05-4.21l.02-1.07c0-.39.03-.6.01-1.33-.04-.6-.32-1.18-.78-1.58-.46-.41-1.06-.57-1.71-.6-2.9-.3-5.74-.65-8.57-.91-1.03-.09-1.34.11-1.71.26-.19.08-1.97-.13-1.74-.17.18-.04.27-.09.41-.13h-.2c-.08,0-.09,0-.24,0-.25,0-.49-.02-.73,0-.46.05-.9.22-1.27.49-.36.26-.65.64-.8,1.06-.15.4-.12.92-.12,1.37,0,1.06,0,2.12-.03,3.19-.04,2.12-.08,4.23.05,6.28-.07-.25-.17-.26-.16-.65-.24.86-.05,3.19.14,3.21-.03.64-.17.14-.28.53-.15.86.27,2.19.03,2.64-.03.05-.05-.07-.07-.21.05.74-.06,2.38.19,1.9-.15,1.53.08,2.94-.09,4.16.29.82-.18,2.62.24,2.9-.44-.14-.39,2.67-.19,3.65-.13-.33-.15.83-.33.44,0,1.11.06,2.13.29,1.95-.55,2,.37,4.13-.32,5.23.02.41.05.82.07,1.23l.02.29c0,.11.01.08.01.12,0,.05,0,.11-.03.15-.03.06-.03.07-.12.15-.09.07-.19.14-.32.21-.26.13-.57.24-.89.32-1.32.32-2.83.35-4.15.15l-.35-.26c-.11-.02-.21-.04-.29-.06l-.1-.03-.16-.09c-.2-.12-.4-.25-.6-.37-.07-.03-.12-.07-.15-.14-.02-.03-.03-.06-.05-.09-.03-.06-.06-.12-.09-.19-.11-.26-.21-.56-.3-.87-.14-.67.29.32.45.48-.53-1.16-.8-2.46-.94-3.68-.11-1.03-.08-2.01-.05-3.04-.03-.18-.04-.36-.04-.54-.04.02-.08-.02-.12-.12-.05-.2-.08-.61-.19-.97-.1-.37-.35-.71-.64-.86-.28-.16-.52-.16-.56-.14.29-.05.3-.12.12-.25-.18-.12-.57-.19-.94-.22-.62-.06-1.05-.13-.41-.49-.32.04-.7.12-.63.26-.45-.05-.61-.14-.13-.27-1.75.03-1.15.27-2.74.21,0-.1.33-.12.5-.23-.82.16-1.63.32-2.96.14.07-.04-.02-.11.19-.12-.24-.01-.47-.02-.69-.02-.29,0-.57,0-.85,0-.36.01-.72-.03-1.05.12-.33.13-.6.37-.78.66-.41.56-.29,1.43-.33,1.89-.02.55-.06,1.12-.16,1.75-.35-.77-.61,1.83-.63,2.28l.24-.51c-.07.58-.08,1.14-.13,1.67-.04.52-.44,1.58-.44,1.58,0,.23-.22.32-.39.4.19-.04.48-.09.53-.33l.05-.11c0,.06,0,.11,0,.14.01.33.05.37.11.43.04.05,0,.19-.65.38.3-.13-1.12.37-1.78.3h0c-.54.25-1.11.51-1.99.6-.25-.07.1-.43-.06-.47-.5.42-2.72.62-3.39,1.06.23-.12.21-.31.12-.33l-.44.33c-.56.02-.65,0-.58-.17-1.65.22.6.37-1.39.49.15-.04.07-.07.38-.16-1.98.21-3.77.73-5.6.84-.58-.29,1.57-.29.92-.52-2.59.41-7.43,1.22-7.43,1.22-.31.55-1.91-.09-3.17.24.31-.06.39-.31.31-.25-1.74.04-3.53.35-6.18.55l.32-.14c-1.03-.09-2.71-.02-3.82-.09-.33.13-7.12.6-10.15-.16.36.01.87-.08.58-.09h-2.59c.19.23.33.15.86.35-.33.12-2.29-.24-2.25-.17-1.32-.49-.26.44-2.08.03l.11-.11c-.69,0-2.09,0-2.1,0-.26-.03-.5-.09-.72-.17-.52.05-1.02.06-1.49-.11.35-.03.81,0,1.22,0-.17-.08-.32-.17-.46-.28-.38-.1-.6-.1-1.1-.18h.07s-.15-.01-.15-.01c.02,0,.05,0,.07.01l-.23-.05c-.08,0-.15.01-.23.01-.31,0-.59-.04-.86-.11-1.34.48-2.62-.16-4.38.07,1.75-.22.31-.21.47-.48-.44-.13-2.26-.71-3.47-.52-.01-.03-.39-.06-.49-.06-.02,0-.04,0-.06,0,.01.01.02.02,0,.03-1.7.11-3.83-.91-6.27-.86-1.92-.15-2.43.05-4.03-.09-.17-.03-.34-.07-.51-.1-.02-.01-.02-.02-.03-.03-.14.02-.29.03-.44.03-.68,0-1.24-.17-1.7-.46-.24-.05-.49-.11-.73-.16h.49s-.07-.06-.1-.09c-.09,0-.17.01-.27.01-.07,0-.14,0-.21-.01l-.11.04c-.19-.05-.39-.09-.58-.14-.19-.05-.43-.11-.7-.18-.03,0-.05,0-.07,0-.74,0-1.34-.2-1.81-.54-1.07-.33-1.18-1.13-2.24-1.66-.4-.13-.74-.32-1.02-.57-.22-.14-.43-.28-.62-.43-.22-.42-.43-.82-.61-1.17-.12-.18-.21-.36-.29-.56-.01-.03-.03-.06-.04-.09,0,0,0,0,.01,0-.07-.18-.12-.36-.15-.55,0-.03-.02-.06-.03-.09-.44-.52-.71-1.18-.77-1.87-.01,0-.03,0-.04,0-.05-.15-.1-.3-.15-.45l.11-.14c-.02-.12-.04-.23-.05-.35h0c-.01-.07-.03-.17-.01-.23,0-.05,0-.09,0-.14-.19-.15-.05.16-.27.02.07-.4-.22-.88-.24-1.21-.02-.04-.04-.07-.06-.11-.02-.01-.06-.06-.14-.17.02-.01.02-.02.04-.04-.29-.7-.35-1.52-.17-2.26-.29-.03-.3-.8-.53-1.38.03,0,.04-.09.04-.24-.19-.54-.25-1.14-.18-1.72-.15-.22-.15-.62-.18-.94.18.02.26.1.34.25.01-.04.03-.08.05-.13,0-.04,0-.09,0-.13-.02-.04-.04-.08-.05-.12-.05-.06-.08-.14-.1-.25-.19-.57-.24-1.19-.15-1.79-.05,0-.1,0-.15-.02.03-.13.05-.26.08-.38.06.02.1.07.13.13,0-.01,0-.03,0-.04-.01-.08-.02-.19.04-.26l.02.05c.14-.42-.37-2.06-.37-2.16-.36-.19-1.77-.18-1.92-.19-.13,0-.25-.03-.38-.05-.25-.04-.49-.11-.74-.17-.49-.13-.99-.27-1.48-.25v-.1c-.58.06-1.28-.03-1.7.15-.17,0-.39-.19-.32-.3-.44.05-1-.2-1.12-.23-.13,0-.26-.01-.39-.03-.13.01-.91-.18-1.18-.11l-.3-.15c-1.07-.34-1.91.5-2.74.23-.07.01-.14.02-.21.03.18.05-.21.13-.44.03-.02,0-.04,0-.06,0-.16,0-.3-.01-.45-.03-.22.04-.46.07-.71.07-.04,0-.07,0-.11,0-.16.13-.34.27-.71.27h0c-.15-.05-.3-.1-.38-.13l-.05.13c-.3-.07-1.09.16-.76.13-.79.06-1.17.37-1.94.75.15-.03.33.03.21.09-.55.29-.83.35-1.08.66-.32-.03-.72,2.12-1.37,2.79.08.02.15.08.21.28-.15.33-.55,1.55-.41,1.64.14.09.32.17.46.61-.2-.06-.23.32-.14.45-.13-.37.2-.26.45,0,.1.58.34.52.45.79l-.08-.32c.2.03.61,2.05.65,2.29.44.42.18.67.47,1.09l-.03.09c.65.65,1.68,2.2,1.68,2.2.26.02,1.79,4.07,1.91,4.02-.04.19.56.55.5.85.13.06.32.01.44.29-.02.05,1.37,2.13,1.22,2.99.32.5.66,1.09.83,1.55-.06-.01.08.32.23.4.15.07.05.18-.07.4-.33.06-.26.21-.27.45,0,.12.02.25-.02.38-.05.12-.12.24-.24.3v-.11c-.14.11-.21.31-.25.57-.07.25-.15.56-.38.78,0,0-.02-.06-.07-.06-.02.55-.82,1.57-1.24,2-.23.02-.65.17-.85-.02,0,0-.13.09-.4.2l-1.19,1.18c-.25.57-.47.02-.78.5l-.31-.27c-.24.23-.88.84-1.4,1.14.2-.39-.3.13-.92.37-.16-.72-1.67.43-2.31.03-1.01.61-2.21.54-3.48.86.58.47-1.3.6-1.62.51-.24-.14-.74-.17-.56-.11-.91.39-2.11-.21-2.55-.16-.43.03-1.68-.04-2.06-.02-.37.01-.75.06-1.11.13-.73.14-1.38.35-1.95.39l.06-.17c-.25.13-.35.41-.71.41,0-.06.04-.18-.08-.13-.12.11-.52.53-.85.66.05-.1.11-.2.17-.3-.66.28-2.4,2.79-2.61,3.12-.11.14-.22.44-.27.61-.06.19-.1.37-.13.52l-.06-.03c-.16,1.76.71,2.94,1.6,4,.04.5.46,1.14,1,1.73.53.6,1.86,1.44,2.07,1.55.19.27,1.84,1.12,1.84,1.12.35.67,1.14,1.04,1.86,1.32.72.29,1.39.5,1.58.95.34.02.69.17,1.03.17l-.12.25c.77.4,1.17.58,2.2.88l-.27.11c.57.21.98-.52,1.5-.36l.04.44c1.01.29,1.94.91,3.03.78-.03.05-.09.16-.26.14.47.13,2.82.31,3.4.22,0,0,.42-.12,1.09-.15.15.05.34-.07.96.11,0,0,.26.11.56-.07.34-.1,1.46-.02,1.78.04.05.09,1.19-.19,1.83.03.02.09.06.13.12.15.03,0,.06,0,.09,0,.21,0,.4.02.59.05.01,0,.02,0,.03,0,0,0,0,0,0,0,.07.01.56-.17.76-.25.18-.14,1.09-.06,1.16-.16.45.32,1.11-.16,1.27.04.85-.34,2.04-.67,2.38-1.36.21-.15.32.04.44.07-.12.1.49-.15.44-.05.43-.29.61-.33.56-.71.64-.14-.18.46.58.01l-.06.15c.91-.14,1.43-.73,1.9-1.31.5-.6,3.03-3.3,3.56-4.27.27-.48.52-.97.8-1.44.13-.24.28-.46.43-.69.14-.2.34-.5.43-.55.06-.06.09-.11.1-.17.08.06.17.13.26.2l1.49.48.22.28c.87.07,1.54.44,2,.97l.55.11s0,.05,0,.07c.14.03.27.07.39.11.08,0,.2.04.4.11.07.06.13.12.18.17.21.14.4.3.56.48.1.04.23.08.43.13.04.12-.05.14-.24.1,0,0,.01.01.02.02.74.25,1.68.73,2.1.68.55.51,2.11.91,2.2,1.25.12.04.23.08.33.13.46.08,1.21.25,1.71.42-1.4,0,2.46,1.01,1.96,1.38.53-.05,1.37.19,2.29.5.92.28,1.93.6,2.78.75-.1,0-.3.02-.44-.05.36.14.61.25.82.35.13-.01.26-.02.39-.02.58,0,1.07.13,1.49.34.51.04,1.1.12,1.53.1.34.21.37.31.27.36.33.05,1.66.47,2.04.89.26-.43,3.42.58,3.76.44,1.74.18.75.39,1.31.67.55.04,1.04.02,1.5-.01.46-.04.88-.07,1.28-.02.05.07.21.1.02.16.59-.08,1.44.03,2.31.09.87.05,1.77.11,2.44-.03l1.85.12c1.18.59-.95-.09.12.53,2.07.18,2.33-.05,4.4.08.47-.17-.15-.27.32-.45,2.94-.28,2.31.85,4.47.41.56-.23.77-.65,2.31-.46l-.52.38c2.01-.01,2.93-.42,3.97-.48l.23.32c2.14-.18,4.47-.58,6.82-.92-.12.11-.51.26.05.3,1.48-.23,3.06-.47,4.64-.65,1.57-.23,3.15-.4,4.59-.65l1.02-.52c.25-.06.5,0,.24.13,1.13-.2.01-.19.51-.44.62-.19.87-.07.49.12.94-.37,2.27-.91,3.61-1.44,1.33-.58,4.78-2.47,6.24-2.9,0,0,3.01-1.47,4.52-2.38,1.51-.92,2.91-1.85,4.11-2.55.25-.49.56-.65.82-.85.08.12.4.36.51.29.4.9.54,1.23.73,1.65.05.11.11.23.17.36.08.12.18.25.29.41.24.3.53.72,1.03,1.26.53.58,1.08.56,1.83,1.15l-.18.24,1.22.6c.11.24.24.47.36.7.27.16.52.33.81.46-.31-.2-.57-.56-.48-.59.3.19.64.39.97.62.32.23.65.45.95.65.57.43,1.04.72,1.02.81,1.11.39,2.25.65,3.38.77-.07.07-.13.14-.09.23.05.08.08.2.94.19-.21-.1.15-.16.19-.22.8.33,2.69.43,4.06.32l-.26.21c.62,0,1.26,0,1.9-.06.63-.04,1.33-.09,2.04-.23,1.42-.25,3.16-1.06,3.89-1.44l.49-.28c.39-.42,1.09-.56,1.44-.84.12.04-.12.25-.13.39.19-.23.71-.49,1.24-.84.53-.34,1.04-.8,1.19-1.22h.12c.51-.57.91-1.15,1.2-1.67.07-.12.13-.24.2-.35.07-.13.13-.25.19-.38.12-.25.23-.49.32-.73.38-.97.62-1.91.78-3.12-.26-.08-.09-1.01-.32-1.72h0Z"/>
      <path class="cls-1" d="M284.25,386.26s0-.03.03-.04c-.03,0-.03.02-.03.04Z"/>
      <path class="cls-1" d="M282.94,388.74c.23.26.45.5.14.92.04-.06.05-.09.11-.11-.1.44.07.85.24,1.24.17.4.33.78.27,1.26,0,.26.22.19.44.24l-.24.18.42.06c.36.17-.31.9.34,1.02l.13-.16c.05.16.4.32.2.44.04,0,.19-.09.15.02l-.12.1c.15.05.3.09.45.13.13.29-.49.37-.18.72.17.09.65.02.67-.1-.04-.05-.05-.19.05-.3l.16.04s.04-.04.06-.06c0,0,0,.01.02.02.43.39.88.71,1.34.97l.03.02c.06.03.12.08.18.11-.03.05-.07.08-.12.08.05.25.19-.07.21.19,0,.04-.02.05-.04.06l.19-.04c-.06.06-.1.27-.16.17.17.34.54-.08.52.24h-.03c.31.02.24-.13.35-.3.06.02.11.04.17.06-.01.17-.03.34-.04.52l.13-.27s.1.07.05.18c.2-.15.01-.13.15-.29l.56.16c-.05.51.25-.03.37.24-.1.25-.24.07-.11.34.18-.41.33.15.5.09.05-.35.34-.09.61-.2-.03.11.46.23.7.35v.06c.04-.36.28-.29.46-.37,0,.21-.03.3-.13.39h.17c.04-.12.09-.18.19-.22l-.03.27c.23-.03.43-.35.73-.19-.01-.17-.14-.42-.13-.62.05,0,.1,0,.14-.02,0,.08,0,.16-.04.19.02-.02.08-.12.13-.07l-.09.24c.14.08.04-.2.15-.19.02.19.09.13.1.28-.02.02-.1-.07-.13.01.12.02.28.11.34.25-.03-.11-.04-.26.04-.29.22-.04.11.22.26.29.03-.14.2-.03.15-.31.06-.01.1.12.14.19.09-.14.52-.14.33-.41h-.03s.01-.02.02-.03c.29-.36.79-.02,1.12-.26l.03.09c.18-.17.46-.22.53-.47.06-.02.21.1.23.22.13-.14.1-.24.39-.2-.08.22.25.28.34-.06.04.26.3.2.35.08l-.22-.08c.09-.08.19-.12.29-.15l.11.31c.62.11.37-.99,1.02-.64-.02-.26-.3,0-.35-.27.19-.08.64.18.7.14.35-.04-.06-.55.26-.63-.1-.07-.32-.29-.21-.51.18-.1.5.21.46.36-.03.04.51-.32.79-.44-.08-.01-.2-.08-.17-.11.4-.19-.02-.28.14-.51.23,0,.27.33.35.02.2-.05.25.18.27.29.01-.35.45-.28.58-.38l-.02.17c.02-.1.06-.16.11-.21l-.23-.08c.08-.04.13-.1.2-.04-.07-.16-.34-.19-.4-.45.16-.02.09-.33.37-.19-.29.22.27.15.13.42,0-.07.05-.12.13-.17.04,0,.04.05.04.08.43-.12-.18-.32,0-.61.12.13.32.11.32.04-.08.12-.28-.1-.32-.27.23-.12.04-.25.11-.34l-.12.08c-.13-.12-.05-.2-.03-.36.12.05.54-.05.46-.36.15-.05.3.12.41.07-.09-.34.33-.19.26-.53-.25,0-.2.03-.34-.23v.49s-.22-.4-.22-.4c-.05.13.04.32-.03.39-.13-.2-.08-.17-.28-.18.39-.05-.07-.41.23-.52l.54.19c.37-.25-.12-.66.12-1.04l-.13.11c-.21-.1.04-.26-.04-.41.19.05.27-.03.39-.07-.14-.01.05-.32-.32-.4l.27-.16c.15-.34-.52-.43-.45-.73.21.1.34-.05.49.18,0-.11.04-.21-.09-.21.12-.07-.26-.3-.07-.4-.08-.04-.28-.05-.28-.17.04-.02.09,0,.09,0-.09,0-.15-.18-.35-.06.57-.38-.12-.88.31-1.24-.12-.22-.21-.48-.3-.68.06,0,.09-.02.08.02.09-.33-.58-.02-.48-.38.25-.25.21.12.29-.02.58-.24-.18-.36.06-.69l.06.04c.13-.24-.38-.31-.45-.58,0,0,.06-.01.09-.04-.36-.05-.63-.31-.83-.5.25-.05.17.04.37-.12-.09-.09-.34.22-.51.05.08-.13.11-.34.32-.5.05.06.08.13.12.19.25-.28-.16-.25-.17-.38l.14-.07c-.24-.27-.56-.07-.73-.39l-.07.1c-.41.05.07-.26-.27-.25l.27-.28c-.16-.05-.58-.14-.78-.27.3-.09.58.04.83.08-.08-.11-.31-.35-.5-.28.06.02.18.01.16.09-.33.06-.58,0-.76-.18.57-.48-.33-.63-.1-1.17-.28-.06-.44-.23-.6-.44-.17-.2-.34-.42-.59-.56-.15.6-.15-.08-.44.44-.12-.04-.15-.07-.15-.11,0,0,0,0,0,0h0s-.16-.49-.16-.49c0-.2.17-.05.23-.17-.24-.18-.35-.09-.35-.09-.5.09-.09-.63-.62-.5l.2-.12c-.25.02-.76-.32-1.11.07-.01-.08-.01-.24.09-.26-.49-.21-1.22.17-1.54-.16l.06-.14c-.1.03-.21.24-.3.08.01-.06.06-.14.02-.15-.06.04-.28.21-.4.11l.12-.15c-.49-.25-.8.35-1.19.43,0-.44-.4-.56-.6-.61v-.06c-.3,0-.55.1-.77.25-.22.16-.43.35-.67.48-.21-.2-.5-.17-.8-.09-.31.07-.62.17-.92.17.11.04.11.31.05.39-.15-.03-.19.41-.34.04h.04c-.25-.32-.45-.12-.63-.03l.21.47c-.4-.2-.68.02-.89.27-.21.24-.38.47-.7.29-.03.17-.15.27-.16.45l-.17-.22c-.31.18-.48.26-.75.61l-.07-.21c-.19.17.34.79.2.95l-.34-.24c-.29.29-.83.41-.8.96-.04-.04-.13-.12-.1-.19-.15.14-.68.47-.18.73-.3-.2-.28.33-.25.61l-.21-.17c.2.35.28.4.23.67-.04.03-.14-.02-.15-.06-.1.1.15.24-.07.37l-.11-.16c-.12.17-.03.21.1.4.04.16-.23.32-.46.25.12.09.26.27.14.35-.09-.02-.13-.08-.14-.12-.32.25.1.6-.23.73-.02,0-.05,0-.09.01-.05.2-.11.4-.19.59.07.1.1.18-.04.25.15.1.31.21.39.26-.37.04-.61.24-.82.29-.02.03-.05.05-.07.08.03.18.03.36.06.54.04.21.14.4.39.52.06.1-.15.1-.24.13-.05-.06-.04-.13-.11-.16.11.21.03.59.38.64-.16.24-.33-.14-.27.2l-.11-.05c-.29.34-.04.62.19.88h0Z"/>
      <path class="cls-1" d="M501.28,430.75c.17.85.27,1.34.23,1.62-.02.33-.03.66.35,1.28l-.33-.36c.33.66.93,2.55,1.65,3.03-.01.15-.09.37-.26.08.61,1.67,2.07,3.35,2.49,4.67l-.19-.05c.19.27.52.36.6.79-.06.01-.19-.04-.12.1.13.13.67.62.84,1.03l-.34-.23c.78,1.57,1.82,1.99,2.8,3.03-.33.27.46,1.4.9,1.95l-.06.02c.65.71,1.32,1.21,1.98,1.65.01.01.02.02.04.04.09.08.21.15.34.2.64.39,1.3.75,2.02,1.17.33.53,1.12,1.13,2.05,1.69.92.57,1.97,1.09,2.79,1.58-.24-.19.18-.29.5-.2.38.25,1.23.16,1.03.5l-.15-.06c.18.47,1.06.69,1.82.89l.24-.47c.86.6,2.18.65,3.27.57.55-.05,1.07-.09,1.51-.13.21-.01.4-.01.56.01h.07s.14.02.14.02c.08,0,.16,0,.24,0,.1.01.17.03.25.05.44-.23,1-.4,1.39-.69l.07.27c1.24-.42,1.86-.71,3.13-1.59l-.16.34c.75-.46,1.53-1.53,1.53-1.53,1.19-.88,2.57-1.56,3.42-2.78.02.06.07.18-.1.35.53-.44,2.18-1.54,1.62-1.8.26.26,1.14-.97,1.61-1.62l.09.28c.26-.7.21-.78.82-1.47.18-.12.29.03.03.18.63-.38.25-.57.99-1.05l-.13.35c.57-.48.46-.51.63-.93.28-.39,1.1-.88,1.35-.76-.01-.1.58-.73,1.23-1.29l.2.09c.16.19.93-.2,1.21-.5.11-.13.24-.24.37-.34,0,.05,0,.09,0,.15,0,.01.48-.4.47-.44,0,0,0,0,0,0,0,0,1.05,3.03.96,3.29.89,1.01,2.17,2.27,3.18,2.32.34.15.27.35.35.5-.21-.07.27.22.74.4.47.18.93.23,1.06.07.83.35-.56.21.64.42l-.18.07c2.24,1.07,3.96-.13,6.46.93-.18-.07-.26-.1-.29-.16,2.96.72,6.19.29,9.14.81.85.1.94-.12,1.45-.31l.19.29.87-.36c1.23-.29,2.21.63,3.76,0l-.22-.18c.57-.01,1.78-.32,1.71-.09.05-.04.16-.23.39-.16l.04.15c.45-.16,1.88-.4,1.93-.26.05.13.16.26.98.05.3-.12,1.01-1.04.87-1-.14.03-.26.01-.3-.05.16-.1.31-.2.45-.36-.02-.03-.03-.05-.05-.08.02-.02.04-.04.06-.06,1.09-1.74,1.64-3.81,1.86-5.95v-.12c.04-.27.06-.54.08-.81.06.03,0-.26.24-.76.04-.06,0-.37-.04-.56.09.11.28-.1.23.26.23-1.06-.35-1.68-.06-2.09l.03.09c-.19-1.07-.27-.61-.48-.74-.02-.23-.04-.45-.07-.67l.13-.66c0-.15-.02-.3-.26-.59.17-.76-.65-3.02-.59-3.71.3.13.32.77.39.08-.52-.28-.22-1.27-.47-1.79-.34.08-.48-1.12-.94-1.95.15,0-.47-1.71-.77-2.55,0,0-.69-.82-1.08-1.35.2-.08.28-.3.28-.3-.17-.07-.32-.2-.57-.52h.31c-.45-.7-1.14-1.23-1.59-2.19-.16.06-.85-.7-.7-.74.07.07-.15-.47-.14-.7-.07.1-.21.15-.41-.09-.49-.65.02-.36-.18-.8-.22-.08-.7-.72-.7-.84-.34-.26-1.19-1.55-1.15-.99l.05.1s-.03-.03-.05-.05c-1.05-.93-1.58-2.38-2.54-3.37l.08-.06c-.6-.57-1.21-1.37-1.75-1.67-.16-.18-.25-.54-.1-.54-.48-.42-.6-.4-1.14-1.15.57.33-.05-.26.55.38-.52-.64-.58-.9-1.4-1.28.11,0,.13-.03.12-.09-.02-.07-.1-.17-.22-.29-.22-.2-.54-.38-.74-.45.16.16.31.3.46.48-.43-.24-.78-.43-1.14-.62l.34-.2c-.75-.56-1.6-.66-2.36-.69-.77-.04-1.44-.02-2.16-.33-.25.11.01.15.27.2.26.04-.54.07-.92,0-.38-.09-.71-.11-.86-.09-.32.04-.55.14-.72.23-.17.12-.28.24-.39.37-.22.25-.33.49-.85.73.18.03-1.24.86-.88.51.15-.11-.92.45-.82.16-.42.43-.1.3.29.1-.92.43-1.28.9-2.14,1.44.17-.05.37-.04.24.06-1.26.82-3.96,2.51-4.14,2.67h.36c-.24.15-.42.31-.48.23-.12.31-.84.85-1.08,1.01-.05,0-.13.47-1.01,1.23,0-.23-.18.15-.42.54-.65.39-2.21,1.78-2.7,2.46-.36.16-.24-.22-.54-.07-.54.76-.9.46-1.51,1.22.36,0-.43.61-.43.61-1.02.53-1.34,1.52-2.55,2.35l.42-.22c0,.3-.67.6-.98.98-.09-.18-.36-.04-.59,0,.11.09-.83.67-.69,1.05l-.67.23c-.96.65-.68,1.27-1.63,1.87.15-.36-.33-.18.18-.73-.29.22-.58.37-.51.48-.24.02-.7.78-1.09.79-.09.15-.03.35-.4.54-.06-.01-.04-.08-.04-.08.05.09-.52.41-.1.44-.64.01-1.35.3-2.09.62-.7.29-1.43.48-1.96.31-.77.2-1.74.36-2.48.43.04-.06,0-.1.14-.09-1.03-.11-.59.6-1.78.46-.61-.28.61-.2.24-.3-.19-.62-1.41.15-2.19-.23l.19-.04c-.59-.21-1.45.23-2.43.13,0,0,.05-.05.01-.09-.68.28-2.55.32-3.4.28-.26-.17-2.73-.72-3.8-.85-.07-.02-.15-.03-.25-.05l.11.14c-.14.04-.34.03-.56.01l-2.5-1.03c-.63.17-1.4.15-2.33-.06.16-.34-.43-.52-1.11-.71-.35-.09-.72-.19-1.09-.3-.34-.11-.63-.23-.8-.4-.91.01-1.82-.1-2.87.04-.52.07-1.07.22-1.59.48-.26.13-.5.29-.74.47-.24.19-.47.41-.67.66.51-.14.38,0,.22.2-.17.2-1.03,2.12-1.24,2.64-.24.36-.33,1.3-.25.96h0ZM511.61,449.1s0,0,0,0h0s0,0,0,0c0,0,0,0,0,0Z"/>
      <path class="cls-1" d="M221.9,431.34c0,.87.35,1.66.66,2.35.14.35.32.65.44.95.11.29.16.58.1.86.33.59.62,1.19.96,1.75.36.54.71,1.08,1.05,1.61.64,1.08,1.46,2,2.16,2.96-.4.18-.51-.26.08.41.62.66,1.26,1.27,1.93,2.18.33.49,1.03,1.36,1.77,2.13.73.79,2.64,2.46,2.73,2.28l-.33-.21c-.28-.64,1.56.58,1.73.45-.89.05,1.5,1.28.21,1.23.23.13.55.24.58.1.29.26.34.4-.06.29,1.22.74.9.31,1.98.99-.06.08-.3-.03-.47,0,.66.19,1.3.38,2.17,1.02-.08.02-.02.15-.29-.03.78.51,1.56.74,2.32,1.04.76.29,1.51.65,2.4,1.13-.72.13.57.41.51.79l1.04.36-.33-.34c.86.43,1.76.76,1.76.76l1.7.58-.9-.49c.97.17.07-.46,1.21.08-.25-.05.88.35,1.29.68h0c.49.03.98.06,1.62.36.14.17-.26.34-.17.45.27-.08.8.09,1.36.21.56.12,1.14.24,1.46.15-.21.03-.27.21-.21.26l.44-.14c.41.18.46.24.36.37,1.28.37-.3-.54,1.18.02-.13,0-.08.05-.33.02.76.22,1.52.31,2.26.42.74.1,1.46.22,2.17.36.37.42-1.27-.08-.84.29,1.05.11,2.15.14,3.22.19,1.08.02,2.15,0,3.16.13l-.37-.07c.16-.25.53-.16.99-.02.46.11,1.03.24,1.54.13-.25.03-.34.28-.27.22.7.05,1.41.03,2.21-.02.8-.11,1.68-.22,2.73-.36l-.25.14c.83.11,2.16-.1,3.04-.14.25-.16.75-.2.42-.35.35.06.69.08,1.03.09.34-.01.66-.06.99-.11.65-.11,1.27-.28,1.88-.44.61-.15,1.2-.39,1.79-.54.59-.16,1.19-.26,1.82-.26-.28.07-.64.28-.42.22.66-.19,1.31-.45,1.95-.71-.22-.16-.3-.04-.76-.08.21-.21.73-.49,1.21-.65-.83.43.12.34.54.33-.09-.04.02-.16-.04-.21.58.02.58-.1.63-.25.04-.16.14-.31.85-.48l-.03.14c.48-.27.89-.61,1.45-.8.33.14-.49.34-.44.55.38-.17.71-.44,1.04-.67.34-.23.67-.44,1.05-.5-.28.24-.74.44-1.04.64.89-.03.93-.17,1.5-.4l-.06.02,1.32-.53-.36.09c.31-.54.77-.8,1.27-1.08.48-.31,1.03-.62,1.5-1.17-.93,1.08-.06.33,0,.63.35-.12.87-.34.78-.19.22-.28.48-.39.77-.53.27-.16.56-.36.84-.78.09.05.58-.43.6-.15.65-.59-.26,0-.28-.15.43-.55,1.14-.9,1.84-1.42.69-.52,1.43-1.11,1.99-1.92.9-1.18.96-1.68,1.59-2.63.12-.15.25-.29.37-.43.26-.08-.12.58-.12.58.17-.13.32-.26.45-.39.13-.14.24-.28.34-.43.21-.29.4-.6.58-.95l.21-.75c1.57-2.2,5.05-7.5,5.05-7.5.21-.02,1.49-3.69,1.45-4.13.05-.02.07-.02.08-.01-.02-.03-.05-.16.02-.66.33-.54.45-.34.43-1.06.14-.08.18.08.17.37,0-.65.23-1.67.03-2.02.15-.3.2-.83.23-1.27.02-.44.06-.8.28-.76-.05-.1-.12-.38-.18-.71-.08-.32.1-.99.1-1.63-.03-.63-.07-1.36.21-1.25-.5-.74-.52-2.77-1.04-4.06.05.07.14-.69.11-1.18-.4-.01-1.03-3.15-1.19-2.77.02-.76-.06-.63.13-1.08-.25,0-.29-.14-.39-.37-.09-.23-.18-.53-.44-.76-.28-1.07.3-.46-.41-1.46-.17-.57-.07-.04-.38-.17-.86-1.16-.15-.7-.27-1.23-.62-.7-1.32-1.01-1.76-1.51.01-.08-.06-.19.09-.13-.44-.24-.93-.75-1.48-1.2-.55-.46-1.15-.9-1.7-1.07-.05-.07-.11.26-.21.34-.42-.3-.27-.43-.14-.63-.96-.52-2.18-.89-2.87-1.32,0-.19.44,0,.78.15.33.15.2-.57-.26-.74-.45-.18-.9-.34-1.67-.71-.43.03.02.3-.41.33-.58-.14-.97-.28-1.26-.43-.28-.15-.46-.32-.62-.46-.33-.28-.59-.57-1.52-.53-.5.12-.74.48-1.94.1.16-.11.31-.21.47-.31-1.65-.23-2.43.11-3.28.12l-.18-.33c-1.78.08-3.68.62-5.49,1.3.07-.13.36-.33-.11-.28-1.15.48-2.37.99-3.52,1.64-.3.15-.57.33-.85.5-.29.16-.56.34-.82.52l-.4.27-.2.13s-.08.06-.05.02c.02-.02.04-.03-.02,0-.28.17-.56.34-.83.51l-.3.4-.25.43c-.16.15-.38.19-.25-.02-.78.59.09.17-.17.56-.38.38-.61.41-.45.09-.23.36-.51.79-.81,1.26-.28.48-.55,1.01-.84,1.52-.23.55-.51,1.07-.74,1.58-.21.51-.43.98-.65,1.37,0-.12.02-.23.03-.35-.29.63-.2,1.05-.18,1.43.02.38.07.74-.15,1.34v-.24c-.35,1.43-.27,3-.08,4.44.14.72.25,1.42.46,2.06.1.32.16.65.26.95.11.3.21.59.29.87.14.05.28.25.43.51.18.24.37.55.57.85.36.62.87,1.09,1.14.97.24.35.4.6.52.81.15.19.26.33.39.48.13.16.28.32.52.56.12.12.25.25.44.4.22.15.46.31.75.46.64.3,1.09.05,1.86.17l-.05.3c.38-.02.75-.06,1.11-.11,0,0,.64.23.69.15,1.12,0,4.79.86,5.95.6-.17-.07.09-.18.12-.24.62.18,2.06.17,3.08.06-.03.07-.12.14-.18.21h.18s.02,0,.02,0h.04s.06,0,.09,0c.08-.02.16-.03.24-.05.11-.02.23-.04.34-.06l.18-.02s.33-.08.48-.13c.15-.06.32-.12.5-.18.18-.06.38-.12.56-.15.19-.05-.99.5-1.28.53.07.02.11.05.13.09-.28.04-.37.03-.72.08.26-.03-.43.16-.46.19-.01.01-.02.02-.05.04-.02.01-.01.01-.05.03l-.24.12c-.63.3-2.56,1.32-2.97,1.7-1.2.33-2.58.54-4.01.94-.98.4-2.24.72-1.53.37-1.74.43-2.22.55-4.43,1.1.26.06.54.06.41.17-.4.11-.95.03-.9-.09,0,0-2.63.3-4.04.23-1.41-.07-2.74-.19-3.75.07l.11-.02c-.7.09-1.4.16-2.11.22-.97-.08.59-.16-.12-.35-2.29.3-3.56-.31-5.43-.3-.33-.23-.81-.4-1.37-.53-.54-.16-1.15-.28-1.79-.39-.64-.17-1.29-.33-1.9-.51-.6-.21-1.14-.45-1.56-.72l.05.2c-.53-.01-.54-.29-.86-.47,0,.15.45.35.13.32-4.07-1.37-7.99-3.84-11.87-6.02-1.43-.79-1.23.37-2.87-.94l.67-.02c-1.55-.59-3.05-1.36-4.57-2.12-1.52-.75-3.04-1.5-4.72-1.91.22,0,.25-.09.57.02-.15-.12-.39-.23-.65-.34-.13-.05-.28-.1-.42-.15-.15-.03-.31-.06-.46-.09-.6-.11-1.13-.11-1.15,0-.54-.11-.1-.19-.43-.34-.36-.15-.9-.08-1.36-.02-.23.02-.45.07-.64.11-.19.03-.35.04-.47,0-.08-.03.22-.11.37-.15-.13.05-.36.09-.61.13-.25.05-.53.16-.77.23-.49.14-.79.39-.51.38-.7.24-1.29.67-1.75,1.12-.48.46-.83.94-1.23,1.36-.07.39-.42.87-.64,1.35-.25.47-.37.92-.21,1.09-.2-.12-.46.44-.61,1.15-.13.71-.1,1.57.02,1.99-.15-.29-.1.76-.3.43.01.5.16,1.02.26,1.34.14.28.26.42.35.32h0ZM285.27,402.9h0c.22-.09.42-.15.54-.2-.11.04-.27.1-.54.2Z"/>
      <path class="cls-1" d="M311.28,435.42s.01,0,0,0h0Z"/>
      <path class="cls-1" d="M468.18,429.57l-.09.03c0,1.06.11,1.54.12,2.4.27.02.21.35.43.61-.09.63-.3,1.34-.28,2.1.14.54.23.16.39.4-.25.04-.23.8-.4.41.04.92.05,1.17.25,2.33.1-.13.15-.27.23-.19.04.21-.1.48-.22.45l-.03-.06c.37,1.3-.72,3.01-.21,4.04l-.03-.06.27,1.08c-.04.49-.19-.3-.34.07.41,1.16-.06,1.83.22,2.79-.73.74.05,2.62-.42,3.62l.17-.06c.17.26-.1.31-.14.5.13-.03.16-.28.25-.12.03.27.04.55.05.83,0,.47,0,.95.19,1.37.35.86,1.24,1.45,2.24,1.44.3.01.38.03.54.04l.43.05.85.09c.57.06,1.13.12,1.69.16.82.05.47-.89,1.5-.48l-.29.32c.41-.1.83-.14,1.25-.17.21-.01.42-.02.63-.02l.73-.03c.97-.07,1.95-.3,2.74-.81-.07.11-.04.21-.21.27.23.05.57-.12.84-.3.26-.19.44-.43.39-.51.26-.13.15.11.36.1.42-.12.65-.82.94-.79.05,0-.04.13-.08.2.06-.13.3-.33.47-.5.16-.18.26-.34.07-.34.14-.11.27-.23.38-.35.1-.13.19-.27.28-.41.18-.26.31-.53.53-.73-.06-.45.69-1.02.33-1.3.19.1.4-.15.52-.51.11-.36.15-.8.07-1.04.11.17.2-.36.35-.16.08-.52-.02-1.01-.23-.92.55-.88-.42-1.64.26-2.11-.24-1.3-.4-2.51-.5-3.68.44.04.04,1.29.5,1.24-.18-1.11-.56-1.75-.45-2.85.06-.29.19.16.26.26-.15-.92-.03-1.8-.12-2.63-.05-.17-.08-.34-.11-.51-.27.12-.55-.8-.69-.83.49.29.25-.64.64-.56,0-.05.01-.1.02-.14-.02,0-.04-.02-.06-.01.02-.09.05-.15.09-.17.02-.1.04-.2.07-.29-.1-.22-.21-.23-.2-.68.1,0,.13.13.25.2-.19-.32-.38-.64-.29-1.18.06.03.13-.03.13.13-.03-.92-.5-1.56-.32-2.57.42.3.14-.34.5-.4l-.11-.54-.18.22c0-.44-.21-.83-.15-1.22l-.13-.26c-.17-.22-.37.11-.28-.44.01.04.02,0,.03-.08h0s0,0,0,0c.02-.16.05-.47.19-.64h0c-.12-.23-.24-.47-.15-.82.06-.04.15-.03.25,0v.51c.03-.11.06-.22.09-.33v-.15s.03,0,.04,0c0-.03.02-.06.03-.09-.03-.05-.06-.11-.08-.18v-1.06s.03,0,.04-.01l-.04-.03v-.38s.04,0,.07,0c.01-.19-.02-.25-.07-.26v-2.42c.15.06,0,.61.26.41-.04-.6-.18-1.23-.27-1.85v-2.3c.07.04.16.05.12.03.06-.47-.02-.96-.13-1.54v-.92c.08-.41.05-.98.1-1.38-.05-.05-.08-.12-.11-.18v-.53c.12-.45.07-.88,0-1.3v-1.92s.02-.06.03-.09c0,.14.12.34.12.23l-.12-1.03s-.02.01-.04.02v-2.86c.02-.1.01-.19.04-.35v.03s.13-.7.13-.7l-.08.18s-.06-.06-.09-.09v-1.49s.04,0,.06,0c.02-.05.05-.11.07-.16,0-.11,0-.23,0-.34-.04-.37-.03-.75.03-1.12-.01.01-.03.02-.04.01-.32-.66.39-1.56-.05-2.51-.03-.12-.06-.22-.09-.32v-.27c-.5-.73-.68-1.68-.53-2.57v-2.4c0-.57-.46-1.06-1.03-1.1h-.05c.04-.16.09-.31.1-.45.04.04.1.08.23.08.09-.09.2-.16.32-.23-.18-.04-.37-.06-.55-.04,0,0,0,0,0,0-.04-.19-.18-.38-.56-.55l-.62.23-.18-.23.51.02c-.27-.23-.47-.06-.68.05-.04-.12-.12-.21-.24-.26l-.62.39c-.06-.18.29-.33-.1-.46-.29.18.24.41-.23.51-.28-.22-.18-.39-.53-.23-.04-.12.04-.19.18-.23-.31.12-.8,0-.98.23-.28-.27-1.02,0-.97-.43-.1.1-.56.3-.83.3.54-.48-1.04-.1-.86-.64-.41.43-1.37.11-2.05.32.04-.03.12-.1.17-.08-.37-.06-.47-.21-.71-.31-.07.38-.66.42-.99.63-.43-.4.31-.43.19-.79,0,.31-.82.25-.68.52-.34-.25-.29-.13-.45-.46-.09.47-.33.06-.64.33-.49-.27-.1-.45-.67-.35-.06-.04-.13-.08-.1-.12.02-.03.1-.06.13-.09.1-.05.22-.09.22-.09-.15-.01-.22,0-.3.03-.11.03-.14.08-.15.13-.02.11.05.26-.05.36-.08,0-.16,0-.21,0-.4,0-.49-.04-.54-.14-.05-.09-.05-.23-.27-.27-.36.13-.61.38-.79.62-.18.24-.29.49-.43.69-.07,0-.14.07-.14-.07-.1.4-.24.89-.21,1.47,0,.33.01.43.04.61.03.16.08.32.17.45l.3.59c-.26.13-.09-.38-.33-.38.11.52.39,1.13.29,1.53-.33.08-.11-.93-.4-.4l.13-.62c-.52.47.04-.38-.52.06-.1.81.17.91.07,1.72.18.18.27-.06.45.12.33,1.15-.83.91-.39,1.76.22.22.64.3.42.91l-.37-.21c-.04.79.54.45.28,1.27-.15-.15-.12-.62-.17-.5-.29.53.21.38.21.79l-.33.09c.05.84.29,1.76.35,2.69-.1-.05-.2-.21-.3,0,.16,1.17-.04,2.5-.24,3.63l.28.43c0,.1-.13.19-.18.08-.11.44.18.02.29.23.02.25-.16.33-.25.17.24.78.52,2.21.22,3.03l-.08-.16c-.12.64.58.72.32,1.31l-.05-.11c-.12,1.38.14,2.91-.29,3.97.41.2-.18,1.37.39,1.46-.28.79-.39.56-.58,1.68-.03.3.36.44.42.81h-.3s.31.51.31.51l-.36.27.08.34c.02-.14.13-.29.22-.27.14.54-.21,1.31-.36,1.33l.25,1.27c-.12-.03-.16-.24-.24-.41.31.68-.31.12-.04.75.07-.08.18.05.24.06-.18.31-.18,1.02-.11,1.54l-.21-.1c-.05.94.1,1.99.1,3.05.1-.38.45-.29.49.02l-.32.12c.2.2.12-.32.36.09-.04.4-.36.27-.46.04l.11.48c-.09.03-.14-.08-.26-.11.2.2-.32.83.02,1.12h0ZM485.36,423.77c-.03-.13-.08-.23-.16-.31.03.05.09.07.15.08v.23ZM485.34,422.64v.23c-.09.04-.17.06-.07-.33.02.05.04.04.07.1ZM485.25,417.37v.46c-.14-.09-.09-.26,0-.46Z"/>
      <path class="cls-1" d="M485.42,430.5l-.33-.66.25.52s.05.08.08.14h0Z"/>
      <path class="cls-1" d="M449.17,453.52c-.36-.22-.59-.11-1.52-.32.57-.11,1.81-.21,2.91-.28-1.98.25.03.37.91.43-.15-.06.14-.16.06-.22,1.2.09,1.29-.08,1.46-.24.18-.18.46-.31,2-.7l-.12.17c1.11-.47,2.02-1.08,3.12-1.73.29-.04.05.16-.28.39-.33.23-.74.47-.73.58.81-.43,1.52-1.03,2.12-1.67.61-.63,1.13-1.29,1.7-1.89-.37.69-1.13,1.52-1.69,2.06.79-.47,1.18-.83,1.49-1.17.31-.34.56-.68.92-1.25l-.07.1c.58-.85,1.07-1.85,1.39-2.87-.1.26-.2.51-.32.76.06-1.23.23-2.36.25-3.62,0-1.24.03-2.57-.19-4.07.42,2.92.24.48.54.71.08-.77.17-1.93.26-1.6-.24-1.42.19-2.37-.16-4.38.09-.09,0-1.52.25-1.2-.07-1.85-.16.44-.28.28-.32-2.85.39-6.69-.05-10.79-.17-3.24-.45-4.06-.62-6.71v-.98c.14-.52.3,1.13.3,1.13.12-1.52-.04-4.22-.04-4.22-.06.31-.17.56-.26.45v-1.52c-.03-.26-.03-.52,0-.77v-.04.02c.01-.09.03-.18.04-.27l-.04-.1v-16.36c0-.58-.45-1.06-1.03-1.1l-.24-.02.28-.63s0,0,0,0c-.21-.2-.88-.42-2.55-.67l-2.62.1-.48-.16c-.24-.04-.47-.11-.68-.2-.04.06-.14.11-.39.13-.2-.13-.56-.24-1.07-.31l-2.58.26c-.3-.2,1.17-.27-.54-.48-1.21.12,1.12.47-.87.47-.15-.04-.28-.07-.39-.1-.06-.02-.11-.03-.15-.05-.07-.02-.14-.03-.2-.05-.26-.06-.45-.1-.65-.11-.2,0-.41.03-.68.14-.26.12-.62.34-.88.84-.12.1-.15.04-.08-.15.04-.09.11-.21.21-.34-.25.27-.45.61-.51.99-.06.31-.03.67-.04,1,0,.2,0,.41.01.6.02.78.05,1.48.16,1.82-.27,1.28,0,4.38-.42,4.23.1.41.31,2.3.31,3.49-.48-2.21-.09,4.45-.63,3.83.44,1.65.13,5.82.35,8.71-.03-.16-.1-.49-.08-.74-.06,1.6-.2,2.04-.3,3.06.38.27.43,2.78.65,4.17-.39,1.9-.43-1.28-.79-.72.31-.04.26,3.47.53,2.85-.24,1.46-.13,1.27-.45,1.98.47.36.06,1.42.34,2.73-.03.27-.06.47-.09.63,0,.04-.02.08-.02.11,0,.03-.02.03-.03.04-.02.02-.03.03-.05.04-.06.04-.11.03-.14.02-.03,0-.06,0-.09.03-.04.02-.07.09-.19.11-.12-.09-1.6-.79-1.96-1.1-.82-.39-1.62-.66-2.34-.93-.36-.13-.7-.26-1.03-.39-.16-.07-.31-.13-.47-.2-.05-.02-.04-.01-.1-.06l-.21-.15c-.05-.11-.25-.28.05-.16-1.37-.73-3.47-2.46-5.3-3.67l.14-.06c-2.49-2.21-2.95-2.27-5.47-4.42-.69-.33.03.35-.66.02-3.88-2.67-2.43-2.92-5.43-4.69-.84-.38-1.35-.27-3.21-1.9l.88.22c-2.58-1.93-1.77-.68-4.38-2.83.57.23,2.12,1.37,1.75,1.05-1.61-1.5-1.37-.73-2.74-1.7l-.11-.46c-.71-.48-1.47-.95-2.23-1.43-.79-.45-1.57-.93-2.4-1.36-1.64-.9-3.39-1.71-5.2-2.41.23,0,.89.16.08-.28-1.16-.42-2.39-.82-3.7-1.07-1.3-.26-2.7-.38-4.12-.17-.35.06-.7.13-1.04.22-.31.09-.63.17-.94.27-.62.18-1.23.4-1.83.61-1.19.44-2.34.93-3.41,1.44-.49.37-.98.74-1.44,1.12-.36.21-.73.3-.37.02-1.62.88,0,.19-.69.75-.86.58-1.24.63-.73.19-1.3.99-3.07,2.45-4.77,4.03-1.7,1.57-3.32,3.24-4.54,4.42l.38-.55c-.92.95-1.29,1.62-1.65,2.26-.35.64-.69,1.25-1.5,2.19l.23-.41c-.85,1.16-1.65,2.41-2.28,3.81-.16.35-.3.71-.42,1.1-.11.39-.22.79-.22,1.29,0,.25.02.54.19.88l.08.13.04.06v.02s.01,0,.01,0h0s.02.04.02.04c-.15.12-.11.09,0,0h0c.06.13.13.25.2.37.14.23.3.44.51.59.21.16.46.23.72.24.25.02.53-.02.79-.05.25-.04.38-.06.57-.09.34-.06.69-.13,1.02-.19.66-.13,1.31-.26,1.94-.39,1.25-.25,2.43-.45,3.5-.59.71-.57,5.45-1.01,5.7-1.58,1.59-.17,2.17-.16,2.9-.2.72-.01,1.63-.14,3.78-.17.57-.01.97-.09,1.41-.16.47-.05,1-.09,1.73-.05v.28c.67-.04,1.34-.01,2.02-.02.33.16.67.32.99.5l1.37.18c-.54-.12-1.12-.34-1.03-.4,2.16.22,5.1,1.32,5.11,1.47,1.67.35,3.32.75,4.97,1.2-.14.07-.97-.16-1.64-.28,2.69.53.38.43,2.84.95-.3-.17.23-.1.3-.13.59.29,1.6.7,2.7,1.13l-1.59.7-.93.36c-.62.24-1.26.47-1.89.69,1.55-.45,1.33.01.09.49,0,0,.74-.46-.84.33-1.62.49-1.19.01-.3-.39l-1.92.73c-.14-.05.3-.24.38-.4-.74.45-3.47.73-4.55,1.37l-.14-.06c-2.18.59-3.76,1.02-5.26,1.4-.37.1-.73.19-1.1.28-.29.07-.69.14-1.05.2-.76.13-1.56.25-2.47.37-.04.28-8.26.94-11.51,1.07-2.29.2-.66.25-1.69.44-.18-.23-3.43-.18-1.74-.37-1.95,0-3.2.03-4.58,0-1.38,0-2.88-.04-5.36-.12.53.15,1.13.23.81.29-.9,0-2.03-.3-1.89-.4h.24c-2.79-.05-5.93-.74-8.88-1.48-2.98-.8-5.8-1.59-7.99-1.9l.25.04c-1.5-.3-2.98-.63-4.44-1.04-2.01-.66-1.78-.59-2.55-.77-.04-.47-.01-.95.1-1.4-.34-.03-.35-.93-.62-1.6.04,0,.05-.11.05-.28-.23-.63-.29-1.33-.2-2-.17-.26-.17-.72-.2-1.1.21.02.3.12.39.29.02-.05.04-.1.06-.15,0-.05,0-.1,0-.15-.02-.04-.04-.09-.06-.13-.05-.07-.09-.16-.11-.29-.23-.66-.28-1.39-.17-2.08-.06,0-.12,0-.17-.03.03-.15.06-.31.09-.44.07.03.12.08.15.15,0-.02,0-.03.01-.05-.01-.1-.02-.22.05-.31l.03.06c.08-.24-.02-.82-.15-1.36-.17-.75-.65-1.28-1.38-1.54-.43-.15-.87-.21-.95-.21-.15-.01-.29-.03-.44-.05-.29-.05-.57-.12-.86-.2-.57-.15-1.9-.01-1.9-.01-.68.06-2.45-.05-2.35-.18-.52.06-1.16-.23-1.31-.26-.16,0-.31-.02-.45-.04-.15.01-1.05-.21-1.37-.12l-.35-.18c-1.25-.4-2.22.58-3.19.27-.08.02-.16.03-.24.04.21.06-.24.16-.51.04-.02,0-.05,0-.07,0-.18,0-.35-.02-.52-.04-.26.05-.53.08-.83.08-.04,0-.08,0-.13,0-.19.16-.39.31-.83.31h0c-.18-.06-.35-.12-.44-.15l-.06.15c-.35-.09-1.27.19-.88.15-.91.07-1.36.43-2.25.87.17-.03.38.03.25.11-.64.34-.97.41-1.26.76-.37-.03-.84,2.47-1.6,3.24.09.02.18.09.24.32-.18.38-.64,1.81-.47,1.91.17.1.09-.11.47.52.02.22.14.41.43.71.09.54.29.61.43.77.18.57.37,1.13.58,1.68.01.03.03.06.04.1.07.32.12.57.13.65.52.49.21.78.54,1.27l-.03.11c.13.13.27.29.42.47.62,1.41,1.25,2.8,1.85,4.19.98,2.23,1.9,4.39,2.48,6.59.43,1.62.65,1.73.87,2.28.12.32.19.66.3,1.14.09.48.02,1.99-.01,2.35-.04.4-.1.79-.19,1.17-.17.77-.46,1.48-.87,2.16-.88,1.42-1.96,2.66-3.32,3.67-1.33,1.02-2.84,1.84-4.4,2.52-.39.17-.79.33-1.18.49-.42.16-.84.33-1.27.49-.71.3-1.5.54-2.3.74.37-.16.37-.24.97-.4-.68.07-1.94.31-3.07.49-1.12.19-2.09.37-2.1.46-1.06.06-.26-.15-.92-.2-1.05-.03-2.43.22-3.49.28-.09,0-.18.01-.26.03-.08.02-.15.03-.23.04-.11.03-.22.05-.31.07-.19.04-.34.07-.47.08-.09,0,.08-.08.31-.16-.23.08-.48.16-.76.27-.24.09-.48.19-.73.3-.27.12-.55.28-.79.44-.97.67-1.4,1.38-.93,1.02-.58.58-.99,1.24-1.27,1.96-.29.72-.4,1.54-.35,2.27.05.74.23,1.43.49,2.06.13.31.29.63.5.94.17.24.34.47.5.7.14.12.29.27.45.44.17.16.35.33.53.52.18.19.37.38.56.58.2.19.4.37.59.55.38.37.77.68,1.09.9.32.22.58.36.73.34-.2.1.7.92,1.92,1.66,1.22.75,2.72,1.46,3.54,1.71-.57-.12,1.28.75.6.63,1.78.8,3.5,1.31,3.25.98.4.21.81.4,1.24.56l.33.12c.13.04.29.09.38.11.21.05.42.09.63.14.84.17,1.69.29,2.48.37,1.6.17,3,.22,4.01.59,1.47,0,2.92-.13,4.32-.37,1.37-.24,2.72-.54,4.03-.94,2.62-.8,5.02-2,7.16-3.56.05.25-1.17,1.1-2.4,1.75-1.24.67-2.51,1.16-2.32,1.33,1.16-.5,2.16-1.05,3.05-1.62.45-.28.86-.58,1.27-.88.42-.31.8-.63,1.17-.97,1.47-1.35,2.78-2.83,4.08-4.98.68-1.12-.17.75-.39,1.15.67-1.08,1.2-2.27,1.65-3.38.43-1.17.72-2.32.96-3.45.46-2.27.68-4.5.65-6.66-.18.47-.27-.85-.41-1.52-.06-.34-.07-.74-.16-1.05.19.02.35.05.35.02-.18.08-.02.23.19.37.22.15.52.3.8.44.2.11.69.35.82.48.15.14.04.21-.56.16.54.18,1.22.36,1.15.19.75.35.97.53.14.35,1.43.52,1.92.56,2.37.67.45.08.86.18,2.16.61-.04.09-.58-.05-.88-.03,1.38.26,2.76.52,4.99,1.18-.12.02,0,.11-.27.06,3.72.91,6.51,1,10.64,1.89-1.33.2,1.43.38,1.6.77.77.09,1.56.17,2.34.24l-.91-.31c1.93.29,3.68.24,5.36.41l.43-.03c2.09-.12-.21-.44,2.52-.3-.55.04,2.04,0,3.12.16h0c1.01-.15,2.04-.34,3.55-.36.4.08-.28.43-.02.48.97-.36,4.77-.54,5.99-1.04-.41.13-.41.32-.26.34l.8-.35c.95-.05,1.09-.03.96.14,2.83-.35-.96-.32,2.42-.61-.26.06-.13.08-.67.2,3.41-.4,6.44-1.43,9.45-2.27.5.03-.15.26-.78.48-.64.2-1.27.39-.71.39,4.36-1.34,8.71-3.52,12.61-5.48l-.74.35c.15-.37.89-.69,1.84-1.08.95-.38,2.05-.91,2.95-1.56-.45.3-.47.6-.37.48,2.61-1.48,5.17-3.33,8.61-6.28l-.36.44c.23-.15.49-.33.74-.51.25-.18.52-.36.81-.55.25-.16.51-.33.77-.5.18-.12.36-.25.53-.38.3.4.5.76.96,1.47.42.39,1.02,1.32.8.64.35.66.67,1.34,1.1,1.93.46.56.94,1.09,1.45,1.59,1.02,1,2.11,1.9,3.3,2.63,2.37,1.5,4.98,2.27,7.58,2.85-.32-.04,2.01.2,3.5.13h0Z"/>
      <path class="cls-1" d="M778.55,420.06s0,0,0,0c0-.06-.03-.14-.07-.22-.06-.14-.16-.31-.34-.5-.18-.19-.44-.41-.83-.59-.2-.1-.51-.18-.79-.22-.13-.01-.28-.02-.41-.03-.12,0-.26,0-.39.01-.93.23-1.69.56-2.46.89l-.83.03c.66-.22,1.32-.43,2.02-.61-1.24.12-1.89.53-2.64.91-.22-.05-.58-.02-1.05.1l-2.12,1.17c-.33-.08.9-.67-.64-.26-.99.54,1.14.04-.57.74-1.16.16-.89-.1-2.13.48-.22-.05.04-.21.53-.42-1.1.5-3.02.97-3.56,1.36-1.21.09-3.92.98-3.89.53-.34.18-2,.7-3.08.82.96-.37-.05-.24-1.23-.17-1.18.07-2.53,0-2.26-.27-.71.22-2,.17-3.41-.1-1.4-.26-2.89-.77-4.12-1.17.15.02.43.06.63.17l-6.02-2.65c-.16-.15-.16-.19-.19-.25-.02-.05,0-.08.03-.11.06-.04.16-.05.26-.06.02-.02.16.03.27.06.11.03.22.06.31.08.18.03.28,0,.2-.14-.02.08-.21.03-.48-.07-.03-.01-.07-.03-.11-.04-.04-.02-.08-.03-.08-.03h-.07s-.11-.02-.17-.04c-.12-.03-.25-.09-.34-.15-.08-.06-.12-.11-.23-.04.19-.2.34-.24.38-.25.19-.11.21-.09.48-.05-.12-.51.89-.78,1.73-1.58,1.85-.75.64.13,2.53-.98.5-.16.33,0,.04.22-.3.21-.71.47-.71.47,1.99-.98.79-.78,1.12-1.17,2.4-1.24,1.24-.29,2.15-.51.75-.39,1.39-.8,1.99-1.17.31-.19.58-.36.85-.5.27-.15.55-.27.83-.37.1.03.33-.03.1.13.75-.42,1.97-.78,3.26-1,.64-.11,1.3-.19,1.92-.26.49-.04.94-.11,1.36-.17.15-.03.32-.06.49-.07-.18-.14-.21-.29-.16-.39,1.01-.03,1.89-.22,2.26.02-.62-.03-.67.07-.97.14.35-.03.71-.06,1.06-.08.92.36-1.36.08-1.44.33.02,0,.04,0,.06,0,2.03-.11,4.43-.18,5.98.12.03.03,0,.05-.03.07,1.12.11,2.19.35,3.17.81.01-.04.09-.08.31-.1.4.04.77.07,1.12.1.17,0,.31-.02.45-.03.15-.01.28-.01.4-.08.25-.12.42-.32.56-.52.27-.39.43-.79.47-1.14.02-.19.04-.36.04-.54.01-.17.02-.36.03-.44.02-.22.05-.41.07-.6.04-.38.06-.75,0-1.24-.04-.25-.09-.52-.24-.9-.1-.24-.15-.33-.24-.5-.09-.15-.18-.32-.28-.5-.3-.37-.57-.59-.9-1-.33-.41-.68-1.02-1.3-2.14.27.17.53.35.79.53-.89-1.45-1.39-1.73-1.8-2.04-.21-.15-.44-.31-.72-.55-.1-.09-.27-.27-.47-.49-.2-.22-.43-.49-.71-.81.27.16.75.6,1.1.96.27.27.59.54.41.35-.2-.24-.23-.31-.38-.5-.13-.16-.24-.28-.34-.38-.2-.2-.36-.3-.5-.39-.3-.17-.57-.27-1.21-.83l-.05-.48c-1.36-1.12-2.95-2.13-4.7-2.91-1.75-.78-3.67-1.29-5.63-1.47.23-.09.92-.1,0-.3-.63-.03-1.27-.08-1.92-.04-.65,0-1.3.06-1.96.16-1.31.19-2.62.53-3.85,1.02-1.24.48-2.41,1.11-3.49,1.79-.54.35-1.04.66-1.54,1.03-.5.38-.99.74-1.47,1.11l-1.12,1.48c-.29.3-.61.5-.36.12-1.31,1.34.07.19-.43.94-.34.4-.59.64-.7.72-.12.07-.13-.03.04-.33-.92,1.37-2.08,3.39-2.95,5.54-.89,2.15-1.52,4.39-1.97,6.03l.05-.67c-.33,1.29-.27,2.07-.23,2.8.03.37.05.72.06,1.15,0,.42,0,.94-.04,1.52l-.07-.46c0,1.08.05,2.22.23,3.36.17,1.14.46,2.26.82,3.33.36,1.07.85,2.13,1.31,3.04.1.21.21.42.27.63,0,.05.02.11,0,.16-.02.05-.09.07-.14.07-.11.01-.22.03-.33.04l-.18.02h-.08s-.05.01-.13.03c-.27.04-.54.08-.8.12-.52.08-1.02.15-1.5.2-.7.58-5.4.95-5.64,1.56-3.16.32-2.29.07-6.69.65-1.17.17-1.68.66-3.12.94l-.08-.29-1.92.61-1.1-.19-1.35.27c.55-.06,1.17-.03,1.1.07-2.11.44-5.22.5-5.29.34-1.67.29-3.34.57-5.02.81.08-.1.58-.2,1.11-.3-1.88.36-.2-.33-2.47.16.34.03-.16.2-.21.26-1.25-.05-4.06.16-6.13.38l.39-.23c-3.76.17-7.92.53-12.14.53,1.52.09,1.17.45-.07.49l-.5-.31c-.8.2,1.3.11-.35.36-1.58-.03-1.06-.35-.16-.46l-1.92.11c-.11-.1.34-.14.46-.26-.79.19-3.31-.36-4.45-.06l-.11-.1c-2.11-.06-3.65-.1-5.09-.14-1.44-.03-2.78-.07-4.5-.17-.08.26-1.43.14-2.47.28-2.53-.26-5.32-.69-8.36-.95-2.15-.06-.65.17-1.62.25-.14-.25-3.18-.53-1.58-.56-3.66-.33-4.67-.42-9.31-.75.49.16,1.05.27.75.32-.84-.06-1.89-.33-1.76-.43h.22c-5.23-.24-11.84-2.23-16.02-2.31h.23s-4.3-.35-4.3-.35c-1.95-.33,1.2-.01-.22-.38-4.66-.33-7.29-.92-10.47-2.31-.24-.25-.53-.51-.81-.81-.07-.06-.16-.17-.19-.21l-.03-.07s-.02-.04,0-.07v-.04s.01,0,0-.1c-.06-1.16-.12-2.48-.19-3.83-.13-2.74-.26-5.63-.05-7.63l-.17.23c-.18-1.03.08-1.25.11-2.01-.13.11-.14,1.12-.24.48-.13-3.63-.14-7.35-.09-11.11.04-1.88.07-3.77.11-5.65.05-2.02.09-4.04.14-6.05-.03-.36-.07-.72-.2-1.02-.13-.3-.34-.59-.6-.81-.27-.22-.57-.37-.88-.44-.32-.09-.71-.06-1.09-.03-.86.05-1.71.11-2.56.16-3.28.21-1.79,1.04-5.95.96l1.15-.41c-1.65.23-3.31.41-4.99.56l-.86.08c-.38.02-.73.1-1.02.26-.3.16-.57.42-.74.72-.18.3-.26.63-.29,1v2.87c-.02,3.37-.04,6.73.13,9.97-.07-.39-.17-.4-.17-1.03-.23,1.37-.01,5.07.18,5.09-.02,1.01-.17.23-.27.86-.14,1.38.3,3.45.07,4.18-.02.08-.05-.11-.07-.32.06,1.17-.03,3.78.21,3-.13,2.44.12,4.66-.04,6.61.3,1.27-.14,4.17.28,4.57-.44-.17-.35,4.27-.15,5.81-.13-.52-.14,1.34-.32.74,0,1.76.09,3.37.31,3.06-.26,1.62-.16,3.25-.07,4.7.04.73.08,1.41.07,2.02-.03.65-.02,1.33-.06,1.89.23.87.6,1.62.95,2.23.14.24.21.32.32.47.1.13.21.26.32.39.22.25.46.49.72.71.27.22.56.43.91.6.3.14.53.24.79.35,1.02.44,2.04.83,3.05,1.19,2.01.72,4.91,1.83,6.64,2.22,1.73.4,3.45.74,5.6,1.32,1.11.33-.68.03-1.08.01,4.41.87,8.47,1.89,12.44,2.28-.02.04-.45.01-.85-.02.78.12,1.79.37,1.73.16l-.76-.07c-.59-.25.2-.26,1.16-.24.96,0,2.09.06,2.17,0-1.4.37,3.86.72,1.67,1.12.52.04,1.17.03,1.07-.12.75.14.98.25.19.3,2.8.26,1.83-.06,4.36.25-.02.09-.53.07-.81.15,1.3-.04,2.6-.06,4.73.26-.11.04.03.11-.3.1,3.55.34,6.15.16,10.07.68-1.22.32,1.36.25,1.54.63l2.18.06-.86-.24c1.9.15,3.59.02,5.22.24l-1.42.05,3.56.17-2-.27c1.93-.06-.18-.47,2.34-.2-.52,0,1.9.12,2.88.39h0c.95-.06,1.92-.13,3.32.03.36.13-.31.38-.08.47.94-.25,4.46.13,5.64-.15-.39.06-.42.25-.3.29l.79-.22c.88.11,1.01.15.86.3,2.65.14-.83-.48,2.31-.19-.25.01-.13.05-.65.08,3.17.19,6.12-.08,9.02-.01.86.35-2.54.13-1.55.42,4.2-.12,8.67-.66,12.72-.81h-.76c.53-.54,3.03.09,5.06-.31-.5.07-.64.33-.5.26,2.78-.13,5.66-.55,9.82-1.24l-.5.2c1.64-.08,4.28-.48,6.04-.66.5-.21,1.5-.33.87-.43,5.51-.03,10.2-1.99,15.06-2.26-.57.11-1.33.37-.88.29l4.02-.9c-.36-.15-.56-.03-1.44-.04.49-.22,1.61-.55,2.6-.76-1.78.52.09.35.9.31-.15-.04.11-.17.03-.22,2.19-.05.26-.49,3.18-.86l-.13.15c1.06-.3,2.01-.66,3.18-.89.54.15-1.11.38-1.14.6,1.62-.37,3.08-1.23,4.61-1.32-.67.23-1.66.47-2.33.7,1.67-.08,1.83-.2,3.03-.44l-.12.02,2.05-.47c1.85-1.16,4.07-1.2,6.66-2.38-2.51,1.13-.37.35-.49.69.72-.1,3.7-.62,5.38-1.51.11.06,1.36-.43,1.14-.11,1.62-.6-.44-.03-.34-.19,1.21-.57,2.74-.93,4.38-1.43.82-.24,1.68-.5,2.54-.81.87-.31,1.73-.69,2.59-1.14.76-.34,1.35-.62,1.86-.88.53-.28.94-.56,1.33-.86.64-.49,1.23-1.03,1.93-1.89.19-.21.4-.45.61-.71.2-.14.13.05,0,.3-.17.31-.47.69-.47.69,1.27-1.15,1.97-2.3,2.51-3.82-.06.33.47-.78.48-.92,0-.08-.01-.16-.01-.24-.05.14-.11.28-.16.42l-.04-.81c2.68-7,3.39-9.66,4.15-14.13.15-.99.62-1.86.22-2.35h0ZM753.02,394.45c.08,0,.14.02.21.02-.07,0-.13-.01-.21-.02,0,0,0,0,0,0ZM754.16,394.61c-.14-.02-.33-.05-.57-.09.22.04.42.07.57.09Z"/>
      <polygon class="cls-1" points="221.95 599.92 231.56 599.92 231.56 622.9 241 622.9 241 599.92 250.61 599.92 250.61 592.38 221.95 592.38 221.95 599.92"/>
      <path class="cls-1" d="M271.41,600.29c-1.55,0-2.9.26-4.04.77-1.14.51-2.28,1.37-3.43,2.56v-11.24h-8.47v30.52h8.47v-10.62c0-2.01.32-3.41.96-4.18.64-.78,1.47-1.17,2.5-1.17.93,0,1.65.29,2.17.86.51.58.77,1.56.77,2.95v12.16h8.51v-14.05c0-2.9-.66-5.05-1.99-6.45-1.33-1.4-3.14-2.1-5.45-2.1Z"/>
      <path class="cls-1" d="M302.83,601.73c-1.83-.96-4.33-1.44-7.49-1.44-3.9,0-6.96,1.07-9.17,3.21-2.21,2.14-3.32,4.93-3.32,8.39,0,2.43.55,4.54,1.66,6.34,1.1,1.8,2.49,3.11,4.17,3.93,1.68.83,3.98,1.24,6.91,1.24,3.37,0,5.96-.48,7.76-1.45,1.8-.96,3.34-2.56,4.62-4.78l-8.35-.77c-.53.67-1.02,1.13-1.48,1.39-.75.42-1.54.62-2.37.62-1.32,0-2.39-.48-3.21-1.44-.58-.67-.95-1.68-1.1-3.04h16.99v-.96c0-2.91-.48-5.28-1.44-7.1-.96-1.82-2.35-3.21-4.18-4.16h0ZM291.48,609.89c.14-1.32.47-2.31.98-2.98.8-1.07,1.88-1.6,3.23-1.6,1.17,0,2.11.35,2.82,1.06.71.71,1.16,1.88,1.32,3.52h-8.35,0Z"/>
      <polygon class="cls-1" points="346.83 592.38 340.67 602.68 334.52 592.38 324.04 592.38 335.93 610.12 335.93 622.9 345.38 622.9 345.38 610.12 357.25 592.38 346.83 592.38"/>
      <path class="cls-1" d="M374.63,601.73c-1.83-.96-4.33-1.44-7.49-1.44-3.9,0-6.96,1.07-9.17,3.21-2.21,2.14-3.32,4.93-3.32,8.39,0,2.43.55,4.54,1.66,6.34,1.1,1.8,2.49,3.11,4.17,3.93,1.68.83,3.98,1.24,6.91,1.24,3.37,0,5.96-.48,7.76-1.45,1.8-.96,3.34-2.56,4.62-4.78l-8.35-.77c-.53.67-1.02,1.13-1.48,1.39-.75.42-1.54.62-2.37.62-1.32,0-2.39-.48-3.21-1.44-.58-.67-.95-1.68-1.1-3.04h16.99v-.96c0-2.91-.48-5.28-1.44-7.1-.96-1.82-2.35-3.21-4.18-4.16h0ZM363.29,609.89c.14-1.32.47-2.31.98-2.98.8-1.07,1.88-1.6,3.23-1.6,1.17,0,2.11.35,2.82,1.06.71.71,1.16,1.88,1.32,3.52h-8.35Z"/>
      <path class="cls-1" d="M407.5,618.19v-9.76c0-1.04-.21-2.13-.62-3.28-.42-1.15-.99-2.03-1.71-2.65-1.03-.9-2.31-1.5-3.85-1.78-1.54-.28-3.58-.43-6.12-.43-1.58,0-3.05.12-4.41.36-1.36.24-2.43.57-3.21,1-1.08.6-1.91,1.3-2.49,2.11-.58.81-1.02,1.92-1.32,3.34l8.1.85c.33-.96.77-1.61,1.31-1.96.69-.44,1.73-.67,3.12-.67,1.08,0,1.84.21,2.27.62.43.42.64,1.15.64,2.19-1.05.42-2.05.75-3,1.01-.94.26-3,.7-6.18,1.34-2.65.53-4.47,1.33-5.46,2.42-.99,1.08-1.48,2.46-1.48,4.14,0,1.79.68,3.3,2.05,4.52,1.37,1.22,3.37,1.83,6.01,1.83,1.99,0,3.73-.31,5.23-.92,1.1-.46,2.2-1.22,3.31-2.29.1.64.19,1.11.29,1.41.1.3.3.73.62,1.3h7.95c-.45-.92-.73-1.67-.86-2.26-.13-.59-.2-1.41-.2-2.45h0ZM399.22,613.76c0,1.05-.17,1.91-.51,2.57-.34.66-.92,1.22-1.73,1.68-.81.46-1.69.69-2.63.69s-1.59-.21-2.05-.63c-.46-.42-.7-.97-.7-1.63,0-.58.24-1.1.71-1.56.46-.44,1.55-.89,3.27-1.35,1.26-.32,2.48-.69,3.64-1.1v1.35h0Z"/>
      <path class="cls-1" d="M422.96,601.17c-.81.59-1.6,1.67-2.36,3.24v-3.62h-7.93v22.11h8.51v-7.41c0-3.54.44-5.95,1.31-7.25.61-.92,1.47-1.37,2.58-1.37.58,0,1.37.21,2.37.62l2.62-6.04c-1.49-.78-2.85-1.17-4.1-1.17s-2.2.3-3.01.88h0Z"/>
      <path class="cls-1" d="M457.32,600.29c-3.87,0-6.95,1.09-9.22,3.28s-3.41,4.96-3.41,8.34c0,3.62,1.35,6.55,4.04,8.79,2.19,1.8,5.07,2.71,8.62,2.71,3.98,0,7.1-1.09,9.36-3.26,2.25-2.17,3.38-4.96,3.38-8.36,0-3.03-.91-5.57-2.73-7.64-2.26-2.57-5.61-3.85-10.03-3.85h0ZM460.39,616.28c-.78.93-1.79,1.39-3.01,1.39s-2.21-.47-3.01-1.42c-.8-.94-1.2-2.4-1.2-4.37s.4-3.39,1.21-4.34,1.83-1.43,3.06-1.43c1.17,0,2.15.47,2.93,1.41.79.94,1.19,2.36,1.19,4.28,0,2.05-.39,3.55-1.18,4.48h0Z"/>
      <path class="cls-1" d="M478.74,592.49c-.96.42-1.71.98-2.25,1.67-.53.69-.9,1.57-1.09,2.65-.2,1.08-.29,2.08-.29,2.98v1h-3.17v6.2h3.17v15.91h8.49v-15.91h4.04v-6.2h-4.04c0-.99.03-1.63.1-1.94.14-.55.37-.96.71-1.22.33-.26.88-.38,1.65-.38.62,0,1.44.08,2.46.25l.94-5.12c-2.83-.35-4.99-.52-6.47-.52-1.86,0-3.27.21-4.24.63h0Z"/>
      <polygon class="cls-1" points="527.8 603.06 517.49 603.06 517.49 592.38 508.06 592.38 508.06 622.9 517.49 622.9 517.49 610.55 527.8 610.55 527.8 622.9 537.27 622.9 537.27 592.38 527.8 592.38 527.8 603.06"/>
      <path class="cls-1" d="M566.33,618.19v-9.76c0-1.04-.21-2.13-.62-3.28-.42-1.15-.99-2.03-1.71-2.65-1.03-.9-2.31-1.5-3.85-1.78-1.54-.28-3.58-.43-6.12-.43-1.58,0-3.05.12-4.41.36-1.36.24-2.43.57-3.21,1-1.08.6-1.91,1.3-2.49,2.11-.58.81-1.02,1.92-1.32,3.34l8.1.85c.33-.96.77-1.61,1.31-1.96.69-.44,1.74-.67,3.12-.67,1.08,0,1.84.21,2.27.62.43.42.64,1.15.64,2.19-1.05.42-2.05.75-3,1.01-.95.26-3.01.7-6.18,1.34-2.65.53-4.47,1.33-5.45,2.42-.99,1.08-1.48,2.46-1.48,4.14,0,1.79.68,3.3,2.05,4.52,1.37,1.22,3.37,1.83,6.01,1.83,1.98,0,3.73-.31,5.22-.92,1.1-.46,2.2-1.22,3.31-2.29.1.64.19,1.11.29,1.41.1.3.3.73.62,1.3h7.95c-.44-.92-.73-1.67-.86-2.26-.13-.59-.2-1.41-.2-2.45h0ZM558.05,613.76c0,1.05-.17,1.91-.51,2.57-.34.66-.92,1.22-1.73,1.68-.81.46-1.69.69-2.63.69s-1.59-.21-2.05-.63c-.47-.42-.7-.97-.7-1.63,0-.58.24-1.1.71-1.56.46-.44,1.55-.89,3.27-1.35,1.26-.32,2.48-.69,3.64-1.1v1.35h0Z"/>
      <path class="cls-1" d="M587.3,600.29c-1.74,0-3.21.32-4.41.95-1.21.63-2.4,1.68-3.58,3.15v-3.6h-7.89v22.11h8.47v-10.62c0-2.01.32-3.41.96-4.18.64-.78,1.47-1.17,2.5-1.17.93,0,1.65.29,2.17.86.51.58.77,1.56.77,2.95v12.16h8.51v-14.05c0-2.91-.66-5.07-1.99-6.46-1.33-1.39-3.16-2.09-5.51-2.09h0Z"/>
      <path class="cls-1" d="M614.57,602.96c-.83-.89-1.79-1.55-2.86-2-1.08-.44-2.27-.67-3.59-.67-2.71,0-4.94.97-6.69,2.92-1.76,1.94-2.63,4.75-2.63,8.41,0,3.28.79,6.06,2.38,8.35,1.59,2.29,3.89,3.43,6.9,3.43,1.5,0,2.86-.32,4.08-.96.92-.49,1.93-1.42,3.04-2.81v3.27h7.93v-30.52h-8.56v10.58h0ZM613.55,615.92c-.72.85-1.62,1.27-2.71,1.27-1.01,0-1.86-.42-2.55-1.26-.69-.84-1.03-2.16-1.03-3.97,0-1.93.33-3.3,1-4.12.67-.82,1.49-1.23,2.48-1.23,1.12,0,2.05.43,2.79,1.28.74.85,1.1,2.15,1.1,3.88,0,1.92-.36,3.3-1.08,4.14h0Z"/>
      <rect class="cls-1" x="628.6" y="592.38" width="8.47" height="5.77"/>
      <rect class="cls-1" x="628.6" y="601.53" width="8.47" height="21.37"/>
      <path class="cls-1" d="M657.28,616.86c-.76.57-1.69.85-2.8.85-1.33,0-2.43-.47-3.29-1.41-.86-.94-1.29-2.32-1.29-4.14,0-2.04.43-3.56,1.3-4.56.87-1,2-1.51,3.4-1.51,1.11,0,1.99.24,2.65.72.66.48,1.11,1.19,1.36,2.13l7.97-1.06c-.76-2.48-2.09-4.37-3.99-5.66-1.9-1.29-4.65-1.94-8.25-1.94-2.58,0-4.7.34-6.35,1.02-1.04.43-2.05,1.09-3.04,1.97-.99.88-1.76,1.88-2.33,2.99-.78,1.51-1.17,3.4-1.17,5.68s.32,3.92.96,5.24c.64,1.32,1.52,2.46,2.64,3.44,1.12.98,2.47,1.68,4.03,2.12,1.56.44,3.51.66,5.86.66s4.43-.34,6.01-1.02c1.58-.68,2.87-1.63,3.88-2.86s1.74-2.68,2.19-4.36l-8.06-.92c-.37,1.18-.94,2.05-1.7,2.62h0Z"/>
      <path class="cls-1" d="M681.3,601.17c-.81.59-1.6,1.67-2.36,3.24v-3.62h-7.93v22.11h8.51v-7.41c0-3.54.44-5.95,1.31-7.25.61-.92,1.47-1.37,2.58-1.37.58,0,1.37.21,2.37.62l2.62-6.04c-1.49-.78-2.85-1.17-4.1-1.17s-2.2.3-3.01.88h0Z"/>
      <path class="cls-1" d="M713.94,618.19v-9.76c0-1.04-.21-2.13-.62-3.28-.42-1.15-.99-2.03-1.71-2.65-1.03-.9-2.31-1.5-3.85-1.78-1.54-.28-3.58-.43-6.12-.43-1.58,0-3.05.12-4.41.36-1.36.24-2.43.57-3.21,1-1.08.6-1.91,1.3-2.49,2.11-.58.81-1.02,1.92-1.32,3.34l8.1.85c.33-.96.77-1.61,1.31-1.96.69-.44,1.74-.67,3.12-.67,1.08,0,1.84.21,2.27.62.43.42.64,1.15.64,2.19-1.05.42-2.05.75-3,1.01-.95.26-3.01.7-6.18,1.34-2.65.53-4.47,1.33-5.45,2.42-.99,1.08-1.48,2.46-1.48,4.14,0,1.79.68,3.3,2.05,4.52,1.37,1.22,3.37,1.83,6.01,1.83,1.98,0,3.73-.31,5.22-.92,1.1-.46,2.2-1.22,3.31-2.29.1.64.19,1.11.29,1.41.1.3.3.73.62,1.3h7.95c-.44-.92-.73-1.67-.86-2.26-.13-.59-.2-1.41-.2-2.45h0ZM705.65,613.76c0,1.05-.17,1.91-.51,2.57-.34.66-.92,1.22-1.73,1.68-.81.46-1.69.69-2.63.69s-1.59-.21-2.05-.63c-.47-.42-.7-.97-.7-1.63,0-.58.24-1.1.71-1.56.46-.44,1.55-.89,3.27-1.35,1.26-.32,2.48-.69,3.64-1.1v1.35h0Z"/>
      <path class="cls-1" d="M723.59,592.49c-.96.42-1.71.98-2.25,1.67-.53.69-.9,1.57-1.09,2.65-.19,1.08-.29,2.08-.29,2.98v1h-3.16v6.2h3.16v15.91h8.49v-15.91h4.04v-6.2h-4.04c0-.99.04-1.63.1-1.94.14-.55.37-.96.71-1.22s.88-.38,1.65-.38c.62,0,1.44.08,2.46.25l.94-5.12c-2.83-.35-4.99-.52-6.47-.52-1.86,0-3.27.21-4.24.63h0Z"/>
      <path class="cls-1" d="M749.07,617.4c-.69,0-1.18-.24-1.46-.71-.18-.3-.27-.93-.27-1.87v-7.83h4.66v-6.2h-4.66v-8.41l-8.49,4.35v4.06h-3.12v6.2h3.12v7.78c0,2.47.24,4.25.72,5.35.48,1.1,1.22,1.92,2.22,2.46,1,.54,2.55.81,4.66.81,1.82,0,3.78-.23,5.87-.69l-.63-5.85c-1.12.36-2,.54-2.62.54h0Z"/>
      <path class="cls-1" d="M773.81,609.82c-1.37-.57-3.47-1.01-6.29-1.33-1.86-.22-3.07-.47-3.62-.75-.56-.28-.83-.69-.83-1.23,0-.49.22-.9.66-1.24.44-.34,1.13-.51,2.09-.51s1.75.22,2.42.67c.49.33.83.85,1.04,1.56l8.04-.79c-.55-1.44-1.25-2.59-2.09-3.43-.84-.85-1.89-1.47-3.14-1.87-1.26-.4-3.2-.6-5.84-.6-2.5,0-4.49.26-5.98.78-1.49.52-2.65,1.31-3.5,2.36-.85,1.05-1.27,2.31-1.27,3.76,0,1.33.39,2.52,1.18,3.56.78,1.04,1.75,1.78,2.89,2.21,1.15.44,3.19.91,6.13,1.42,1.97.35,3.18.64,3.64.87.64.33.96.8.96,1.41,0,.54-.24.99-.73,1.35-.63.49-1.51.73-2.64.73-1.04,0-1.87-.21-2.5-.65-.63-.43-1.11-1.14-1.46-2.14l-8.41.79c.49,2.12,1.59,3.76,3.3,4.91,1.71,1.15,4.59,1.73,8.63,1.73,2.86,0,5.12-.36,6.78-1.07,1.66-.71,2.87-1.67,3.64-2.88.77-1.21,1.16-2.45,1.16-3.72s-.37-2.42-1.09-3.47c-.73-1.05-1.78-1.86-3.15-2.43h0Z"/>
    </g>
  </g>
</svg>